<svg width="463" height="358" viewBox="0 0 463 358" fill="none" xmlns="http://www.w3.org/2000/svg">
<path d="M341.15 267.076C324.499 267.076 311 260.791 311 253.038C311 245.285 324.499 239 341.15 239C357.801 239 371.3 245.285 371.3 253.038C371.3 260.791 357.801 267.076 341.15 267.076Z" fill="#EBEBEB" fill-opacity="0.5"/>
<path d="M395.199 326.044C304.79 368.145 158.213 368.158 67.803 326.044C-22.6069 283.93 -22.5938 215.677 67.803 173.576C158.2 131.475 304.79 131.475 395.199 173.576C485.609 215.677 485.596 283.943 395.199 326.044Z" fill="#F5F5F5" fill-opacity="0.37"/>
<g clip-path="url(#clip0_1507_457)">
<path d="M109.568 240.079C109.003 234.249 103.197 222.548 95.7987 215.509C88.3999 208.469 77.3898 203.749 70.167 206.663C63.435 209.368 64.9814 217.583 73.9266 222.363C82.8717 227.143 96.1506 233.031 100.781 242.195L109.661 253.183L109.568 240.079Z" fill="#5751E1"/>
<path opacity="0.1" d="M109.568 240.079C109.003 234.249 103.197 222.548 95.7987 215.509C88.3999 208.469 77.3898 203.749 70.167 206.663C63.435 209.368 64.9814 217.583 73.9266 222.363C82.8717 227.143 96.1506 233.031 100.781 242.195L109.661 253.183L109.568 240.079Z" fill="black"/>
<path d="M110.809 248.017C110.706 248.02 110.605 247.99 110.522 247.934C110.44 247.877 110.381 247.797 110.356 247.706C104.133 228.151 84.835 213.392 73.8712 210.654C73.8104 210.639 73.7534 210.613 73.7035 210.578C73.6536 210.543 73.6118 210.5 73.5804 210.45C73.549 210.401 73.5287 210.346 73.5206 210.289C73.5125 210.233 73.5168 210.175 73.5332 210.12C73.5496 210.065 73.5778 210.013 73.6163 209.968C73.6547 209.923 73.7026 209.885 73.7572 209.856C73.8118 209.828 73.872 209.809 73.9345 209.802C73.997 209.795 74.0604 209.799 74.1212 209.814C85.2888 212.602 104.948 227.605 111.254 247.454C111.272 247.507 111.279 247.564 111.273 247.619C111.267 247.675 111.249 247.729 111.219 247.779C111.19 247.828 111.15 247.872 111.102 247.907C111.054 247.942 110.998 247.968 110.939 247.983L110.809 248.017Z" fill="white"/>
<path d="M108.763 261.011C107.411 257.819 102.484 252.763 94.8726 248.857C86.5386 244.547 76.297 243.069 73.5746 239.398C70.3614 235.005 74.2413 230.301 82.4364 230.57C90.6315 230.839 105.846 239.743 109.587 254.669L108.763 261.011Z" fill="#5751E1"/>
<path d="M110.004 257.45C109.912 257.451 109.822 257.427 109.745 257.383C109.667 257.338 109.606 257.274 109.568 257.198C101.234 240.692 86.2887 235.845 79.5752 235.585C79.5132 235.582 79.4522 235.569 79.3958 235.546C79.3394 235.522 79.2887 235.489 79.2466 235.447C79.2044 235.406 79.1717 235.358 79.1502 235.305C79.1288 235.252 79.119 235.196 79.1215 235.139C79.1225 235.083 79.1363 235.028 79.162 234.976C79.1876 234.925 79.2246 234.879 79.2706 234.841C79.3166 234.804 79.3706 234.775 79.4294 234.757C79.4882 234.739 79.5504 234.732 79.6122 234.736C87.0202 235.013 101.836 239.986 110.429 256.845C110.478 256.948 110.48 257.064 110.437 257.168C110.394 257.273 110.309 257.359 110.198 257.408C110.137 257.434 110.071 257.448 110.004 257.45Z" fill="white"/>
<path d="M361.042 232.527C360.903 227.832 362.339 219.969 367.432 212.115C372.886 203.715 380.081 198.087 386.128 199.801C391.758 201.397 390.517 208.327 382.053 215.878C376.108 221.179 370.145 227.899 367.367 235.585L362.607 245.48L361.042 232.527Z" fill="#5751E1"/>
<path d="M361.042 232.527C360.903 227.832 362.339 219.969 367.432 212.115C372.886 203.715 380.081 198.087 386.128 199.801C391.758 201.397 390.517 208.327 382.053 215.878C376.108 221.179 370.145 227.899 367.367 235.585L362.607 245.48L361.042 232.527Z" fill="#5751E1"/>
<g opacity="0.1">
<path d="M361.042 232.527C360.903 227.832 362.339 219.969 367.432 212.115C372.886 203.715 380.081 198.087 386.128 199.801C391.758 201.397 390.517 208.327 382.053 215.878C376.108 221.179 370.145 227.899 367.367 235.585L362.607 245.48L361.042 232.527Z" fill="black"/>
</g>
<path d="M361.987 236.013C362.062 236.007 362.134 235.98 362.19 235.934C362.247 235.889 362.286 235.828 362.302 235.761C365.932 222.371 375.118 208.276 383.683 203.001C383.751 202.947 383.795 202.873 383.807 202.792C383.819 202.712 383.798 202.63 383.748 202.562C383.698 202.494 383.622 202.445 383.536 202.424C383.449 202.402 383.356 202.411 383.276 202.447C374.581 207.831 365.256 222.086 361.589 235.627C361.578 235.669 361.576 235.712 361.584 235.755C361.591 235.797 361.608 235.838 361.633 235.875C361.658 235.911 361.691 235.943 361.729 235.968C361.768 235.994 361.811 236.012 361.857 236.021C361.901 236.027 361.945 236.024 361.987 236.013Z" fill="white"/>
<path d="M360.996 247.706C363.853 250.006 367.328 251.582 371.071 252.276C377.553 253.561 380.571 250.898 380.571 250.898C380.571 250.898 378.368 245.228 374.784 243.472C378.728 244.5 382.451 246.128 385.794 248.286C385.794 248.286 389.757 248.554 391.702 243.145C391.702 243.145 389.563 239.701 381.785 237.492C385.723 237.066 389.717 237.463 393.461 238.651C393.971 238.869 396.647 231.88 397.536 228.638C398.425 225.396 396.962 225.345 394.193 224.514C391.424 223.682 381.84 222.733 379.988 224.043C378.136 225.354 376.914 230.108 376.914 230.108C376.914 230.108 375.404 227.302 375.988 224.892C374.056 224.275 371.962 224.208 369.987 224.698C366.756 225.538 366.867 226.941 366.728 229.033C366.578 231.137 366.759 233.25 367.265 235.308C367.265 235.308 365.191 233.468 365.533 227.134C365.533 227.134 361.033 230.226 359.125 233.014C357.218 235.803 357.181 243.22 360.996 247.706Z" fill="#5751E1"/>
<path d="M360.968 248.042C361.036 248.046 361.105 248.032 361.165 248.002C361.226 247.972 361.276 247.928 361.31 247.874C367.209 238.264 387.479 227.823 394.554 226.966C394.601 226.96 394.647 226.946 394.688 226.924C394.729 226.902 394.765 226.872 394.794 226.838C394.823 226.803 394.844 226.763 394.856 226.721C394.868 226.679 394.871 226.636 394.864 226.592C394.857 226.549 394.841 226.508 394.817 226.471C394.793 226.433 394.76 226.401 394.722 226.374C394.684 226.348 394.64 226.329 394.594 226.318C394.547 226.308 394.499 226.305 394.452 226.311C387.266 227.151 366.672 237.786 360.671 247.546C360.624 247.623 360.613 247.714 360.639 247.799C360.664 247.884 360.726 247.956 360.81 248C360.858 248.025 360.912 248.04 360.968 248.042Z" fill="white"/>
<path d="M114.568 267.446L112.05 266.127C110.971 265.489 110.074 264.63 109.43 263.618C108.787 262.607 108.415 261.472 108.346 260.306V59.9743C108.414 58.8068 108.785 57.6705 109.429 56.6576C110.073 55.6447 110.971 54.7837 112.05 54.1447L213.91 0.804688C215.057 0.275706 216.326 0 217.614 0C218.901 0 220.17 0.275706 221.318 0.804688L223.836 2.12349C224.914 2.76171 225.812 3.62132 226.455 4.63268C227.099 5.64403 227.47 6.77868 227.54 7.94469V208.285C227.47 209.451 227.099 210.585 226.455 211.597C225.812 212.608 224.914 213.468 223.836 214.106L121.976 267.446C120.829 267.975 119.56 268.251 118.272 268.251C116.985 268.251 115.716 267.975 114.568 267.446Z" fill="#37474F"/>
<path d="M123.245 63.9306L109.429 56.6982C108.765 57.7033 108.392 58.8449 108.346 60.0162V260.306C108.415 261.472 108.787 262.607 109.43 263.618C110.074 264.63 110.971 265.489 112.05 266.127L114.568 267.446C115.716 267.975 116.985 268.251 118.272 268.251C119.56 268.251 120.829 267.975 121.976 267.446L123.236 266.791L123.245 63.9306Z" fill="#263238"/>
<path d="M118.272 65.1739V265.531C118.272 267.681 119.93 268.546 121.976 267.471L223.836 214.131C224.914 213.493 225.812 212.633 226.455 211.622C227.099 210.611 227.47 209.476 227.54 208.31V7.94466C227.54 5.80266 225.883 4.93746 223.836 6.00426L121.976 59.3527C120.897 59.9894 119.999 60.8487 119.355 61.8603C118.711 62.872 118.34 64.0074 118.272 65.1739Z" fill="#455A64"/>
<path d="M126.421 77.8411L219.021 29.3311C220.771 28.4155 222.197 29.1631 222.197 31.0111V190.821C222.138 191.821 221.819 192.794 221.267 193.66C220.715 194.527 219.946 195.264 219.021 195.811L126.421 244.312C124.662 245.236 123.245 244.489 123.245 242.632V82.8307C123.303 81.8306 123.62 80.8571 124.173 79.9898C124.725 79.1226 125.495 78.3862 126.421 77.8411Z" fill="#FAFAFA"/>
<g opacity="0.4">
<path d="M173.24 90.4327C183.621 84.9979 192.038 89.4079 192.038 100.278C192.038 111.147 183.621 124.386 173.24 129.82C162.86 135.255 154.442 130.854 154.442 119.976C154.442 109.098 162.86 95.8507 173.24 90.4327Z" fill="#5751E1"/>
<path d="M210.289 148.603C210.289 130.736 196.464 122.798 179.407 131.736L168.74 137.322C151.683 146.251 137.857 167.982 137.857 185.848V190.662L210.289 152.744V148.603Z" fill="#5751E1"/>
</g>
<path d="M172.906 37.8907C174.277 37.1683 175.388 37.7563 175.388 39.1927C175.342 39.9738 175.094 40.7339 174.662 41.4113C174.231 42.0886 173.629 42.6639 172.906 43.0903C171.536 43.8127 170.425 43.2247 170.425 41.7883C170.471 41.0072 170.719 40.247 171.151 39.5697C171.582 38.8924 172.184 38.3171 172.906 37.8907Z" fill="#263238"/>
<path d="M165.739 49.1299C170.786 46.6099 179.787 41.7463 184.759 39.0919C185.602 38.6383 186.287 38.9491 186.287 39.7807C186.251 40.2497 186.092 40.7042 185.825 41.1071C185.558 41.5101 185.19 41.85 184.75 42.0991L165.702 52.0783C164.85 52.5235 164.165 52.2127 164.165 51.3727C164.208 50.9113 164.374 50.4662 164.648 50.0756C164.922 49.685 165.297 49.3605 165.739 49.1299Z" fill="#263238"/>
<path d="M160.924 51.6583C161.692 51.2551 162.322 51.5827 162.322 52.3891C162.295 52.8284 162.154 53.2557 161.911 53.6366C161.668 54.0174 161.33 54.3411 160.924 54.5815C160.155 54.9847 159.525 54.6571 159.525 53.8507C159.553 53.4114 159.693 52.984 159.936 52.6032C160.179 52.2223 160.517 51.8986 160.924 51.6583Z" fill="#263238"/>
<path d="M172.907 225.211C175.685 223.774 177.879 224.942 177.879 227.815C177.786 229.379 177.288 230.901 176.424 232.257C175.559 233.613 174.354 234.765 172.907 235.618C170.129 237.055 167.943 235.887 167.943 233.014C168.037 231.451 168.535 229.93 169.397 228.574C170.259 227.219 171.462 226.066 172.907 225.211Z" fill="#263238"/>
<path d="M257.366 169.048L246.199 163.168L246.078 163.109C240.522 160.27 232.911 160.682 224.475 165.109C216.585 169.233 209.381 176.113 203.955 184.084C197.686 193.257 193.769 203.883 193.769 213.4C193.769 222.279 197.195 228.52 202.732 231.435L214.076 237.315C219.678 240.557 227.577 240.263 236.355 235.677C253.31 226.891 267.08 205.227 267.08 187.411C267.08 178.171 263.339 171.795 257.366 169.048Z" fill="#5751E1"/>
<path opacity="0.1" d="M213.835 237.265L202.723 231.502C197.167 228.587 193.76 222.346 193.76 213.467C193.76 203.942 197.705 193.307 203.946 184.151L215.817 190.359C209.539 199.54 205.631 210.141 205.631 219.65C205.585 228.125 208.724 234.199 213.835 237.265Z" fill="black"/>
<path opacity="0.4" d="M257.172 168.931C251.69 166.52 244.384 167.133 236.365 171.325C228.345 175.516 221.234 182.371 215.798 190.342L203.927 184.135C209.353 176.163 216.557 169.283 224.447 165.159C232.874 160.741 240.495 160.321 246.051 163.16L246.171 163.219L257.172 168.931Z" fill="white"/>
<path d="M252.348 180.271L248.088 178.036L231.411 213.694L234.254 215.181L252.348 180.271Z" fill="white"/>
<path d="M228.142 205.731L223.882 203.505L219.308 212.283L223.567 214.509L228.142 205.731Z" fill="white"/>
<path d="M235.346 225.639L223.567 214.509L228.142 205.731L234.253 215.181L252.347 180.271L259.052 186.201L235.346 225.639Z" fill="#F5F5F5"/>
<path d="M219.308 212.283L223.567 214.509L235.346 225.639L231.096 223.43L219.308 212.283Z" fill="#E0E0E0"/>
<path d="M344.216 81.5035C349.04 81.5035 353.666 79.7654 357.076 76.6715C360.487 73.5776 362.404 69.3814 362.404 65.0059V64.0315C362.405 62.1953 362.007 60.3768 361.233 58.6799C360.459 56.9831 359.324 55.4413 357.893 54.1424C356.462 52.8436 354.763 51.8133 352.893 51.1103C351.023 50.4074 349.019 50.0455 346.994 50.0455H341.438C337.349 50.0455 333.428 51.5191 330.536 54.1419C327.645 56.7648 326.021 60.3222 326.021 64.0315V65.0059C326.021 67.1731 326.491 69.3191 327.406 71.3212C328.32 73.3234 329.662 75.1424 331.352 76.6745C333.041 78.2065 335.046 79.4216 337.254 80.2501C339.461 81.0787 341.827 81.5046 344.216 81.5035Z" fill="#263238"/>
<path d="M325.456 244.69C323.335 246.709 321.01 248.543 318.511 250.167C318.13 250.398 317.813 250.706 317.585 251.066C317.26 251.687 316.751 253.216 319.853 254.199C321.422 254.692 323.089 254.872 324.742 254.727C326.394 254.582 327.993 254.116 329.428 253.359C331.984 251.914 332.095 248.907 334.503 247.185C336.28 245.917 338.503 245.589 339.947 243.926C340.948 242.767 340.688 241.229 340.16 239.323C339.596 237.239 339.327 235.669 338.568 235.828L338.697 236.786C337.771 238.155 332.836 238.558 330.65 237.626C330.613 237.609 326.835 243.321 325.456 244.69Z" fill="#263238"/>
<path d="M323.299 246.631C324.04 246.018 324.762 245.379 325.456 244.69C326.91 242.979 328.249 241.189 329.466 239.331C330.304 238.205 330.699 236.856 330.586 235.501C330.41 234.056 329.975 230.368 329.975 230.368L337.754 229.864L338.68 236.786C338.865 238.357 337.439 239.751 334.902 241.734C332.364 243.716 329.16 248.328 326.864 249.487C324.567 250.646 322.938 250.604 321.956 250.008C320.974 249.411 320.836 248.924 323.299 246.631Z" fill="#B16668"/>
<path d="M355.041 245.32V244.253C354.588 245.505 352.449 250.856 349.198 253.544C346.624 255.677 343.105 258.139 342.207 260.524C341.309 262.91 347.106 263.825 349.513 263.439C352.291 262.994 355.94 261.549 357.912 259.357C359.292 257.811 360.181 255.997 361.171 254.762C362.162 253.527 364.44 252.191 364.977 250.78C365.274 250.007 364.922 248.319 364.505 246.891C364.088 245.463 363.718 244.136 363.227 244.253V245.093C362.061 245.923 360.616 246.365 359.134 246.345C357.94 246.362 355.032 246.143 355.041 245.32Z" fill="#263238"/>
<path d="M346.865 255.451C347.662 254.804 348.467 254.174 349.199 253.569C351.468 251.696 353.199 248.529 354.19 246.345C354.757 245.107 355.049 243.78 355.051 242.439V238.239H363.228V245.127V245.312C362.839 246.858 359.079 250.957 356.949 253.628C355.523 255.417 352.81 257.702 349.541 258.097C346.439 258.416 344.865 257.534 346.865 255.451Z" fill="#B16668"/>
<path d="M361.597 130.022C367.941 142.58 361.366 186.831 361.366 186.831C361.56 188.872 364.144 192.888 365.07 201.859C366.2 212.46 363.292 239.071 363.292 239.071C362.045 239.729 360.64 240.101 359.199 240.154C357.758 240.206 356.324 239.938 355.023 239.373C355.023 239.373 347.235 199.28 345.763 188.746C344.485 179.548 342.059 157.927 342.059 157.927L335.688 188.94C336.867 191.841 337.702 194.849 338.179 197.911C338.836 204.118 338.346 232.788 338.346 232.788C338.346 232.788 335.568 234.72 330.188 234.006C330.188 234.006 320.928 194.744 320.196 187.285C319.77 182.833 325.363 128.182 325.363 128.182L361.597 130.022Z" fill="#5751E1"/>
<path opacity="0.6" d="M361.597 130.022C367.941 142.58 361.366 186.831 361.366 186.831C361.56 188.872 364.144 192.888 365.07 201.859C366.2 212.46 363.292 239.071 363.292 239.071C362.045 239.729 360.64 240.101 359.199 240.154C357.758 240.206 356.324 239.938 355.023 239.373C355.023 239.373 347.235 199.28 345.763 188.746C344.485 179.548 342.059 157.927 342.059 157.927L335.688 188.94C336.867 191.841 337.702 194.849 338.179 197.911C338.836 204.118 338.346 232.788 338.346 232.788C338.346 232.788 335.568 234.72 330.188 234.006C330.188 234.006 320.928 194.744 320.196 187.285C319.77 182.833 325.363 128.182 325.363 128.182L361.597 130.022Z" fill="black"/>
<path opacity="0.3" d="M342.05 157.927L339.994 147.654C339.994 147.654 331.281 146.016 327.336 142.614C327.336 142.614 331.475 147.292 337.633 148.821L339.948 157.801L336.309 185.857L342.05 157.927Z" fill="black"/>
<path d="M371.932 124.562C371.867 123.722 370.163 114.944 368.997 110.021L357.598 113.188L359.626 122.243L369.219 129.232C372.238 128.695 371.997 125.385 371.932 124.562Z" fill="#B16668"/>
<path d="M316.798 106.015L311.408 114.978L319.798 121.496L327.474 110.45L316.798 106.015Z" fill="#B16668"/>
<path d="M337.021 86.048C331.678 86.0984 325.789 87.854 323.761 91.6592C321.733 95.4644 316.131 105.939 316.131 105.939C316.131 105.939 321.122 112.088 328.613 111.643L337.021 86.048Z" fill="#5751E1"/>
<path opacity="0.6" d="M337.021 86.048C331.678 86.0984 325.789 87.854 323.761 91.6592C321.733 95.4644 316.131 105.939 316.131 105.939C316.131 105.939 321.122 112.088 328.613 111.643L337.021 86.048Z" fill="black"/>
<path d="M348.078 86.216L352.533 86.384C357.366 87.434 359.116 90.4496 361.144 94.3388C362.631 97.3421 362.771 100.753 361.533 103.848L355.866 118.716C355.866 118.716 358.514 124.528 361.598 130.022C347.384 137.221 329.633 133.432 325.354 128.182C325.178 127.065 325.419 122.05 325.077 116.338C324.715 110.24 323.789 103.36 324.845 99.5972C326.808 92.6084 330.475 86.048 337.809 86.048L348.078 86.216Z" fill="#F5F5F5"/>
<path d="M352.551 86.3839C357.394 87.0055 364.524 87.8875 366.978 98.3455C369.469 108.946 369.941 111.475 369.941 111.475C369.941 111.475 365.7 115.314 357.653 115.28C357.635 115.28 350.541 94.4647 352.551 86.3839Z" fill="#5751E1"/>
<path opacity="0.6" d="M352.551 86.3839C357.394 87.0055 364.524 87.8875 366.978 98.3455C369.469 108.946 369.941 111.475 369.941 111.475C369.941 111.475 365.7 115.314 357.653 115.28C357.635 115.28 350.541 94.4647 352.551 86.3839Z" fill="black"/>
<path d="M357.421 114.633C356.495 111.853 355.569 108.677 354.689 105.267C354.727 109.554 355.208 113.829 356.125 118.035L357.421 114.633Z" fill="#EBEBEB"/>
<path d="M331.956 56.7151C330.04 57.7483 327.669 62.1331 327.9 71.3227C328.095 79.1095 330.882 81.0331 332.28 81.5875C333.679 82.1419 336.373 81.8059 338.994 81.4111V86.0899C338.994 86.0899 335.373 89.9035 335.596 92.0455C335.818 94.1875 340.827 94.6999 344.217 92.5999C346.411 91.1667 348.294 89.3783 349.773 87.3247V76.0183C349.773 76.0183 351.541 78.1603 354.403 76.4215C357.264 74.6827 357.403 70.3651 355.727 68.8111C354.051 67.2571 350.412 67.7527 349.745 69.8947C349.745 69.8947 345.559 70.0375 339.994 67.2655C337.836 66.2019 335.984 64.6927 334.588 62.86C333.192 61.0272 332.29 58.9222 331.956 56.7151Z" fill="#B16668"/>
<path d="M337.485 69.3655C337.481 69.5584 337.54 69.7479 337.655 69.9104C337.77 70.0729 337.934 70.2012 338.129 70.2794C338.323 70.3576 338.538 70.3822 338.748 70.3501C338.958 70.318 339.152 70.2306 339.308 70.0989C339.463 69.9672 339.572 69.7969 339.622 69.6093C339.671 69.4217 339.658 69.225 339.585 69.0438C339.512 68.8627 339.382 68.7049 339.211 68.5904C339.04 68.4758 338.836 68.4094 338.623 68.3995C338.479 68.395 338.334 68.4165 338.199 68.4626C338.063 68.5087 337.939 68.5786 337.833 68.6684C337.727 68.7581 337.642 68.8658 337.582 68.9854C337.523 69.1051 337.489 69.2342 337.485 69.3655Z" fill="#263238"/>
<path d="M337.198 75.9679L334.688 76.6987C334.731 76.8528 334.808 76.9975 334.914 77.124C335.02 77.2505 335.153 77.3562 335.305 77.4347C335.458 77.5133 335.625 77.5629 335.799 77.5808C335.973 77.5987 336.15 77.5843 336.318 77.5387C336.662 77.4331 336.947 77.2095 337.111 76.916C337.275 76.6224 337.307 76.2821 337.198 75.9679Z" fill="#9A4A4D"/>
<path d="M328.632 66.3583L330.817 64.9891C330.726 64.8503 330.605 64.7302 330.46 64.6366C330.315 64.543 330.15 64.4779 329.975 64.4455C329.801 64.4131 329.621 64.414 329.447 64.4483C329.273 64.4827 329.109 64.5495 328.965 64.6447C328.679 64.8379 328.486 65.123 328.424 65.4415C328.362 65.76 328.436 66.088 328.632 66.3583Z" fill="#263238"/>
<path d="M329.132 68.66C329.13 68.8525 329.191 69.0412 329.307 69.2026C329.423 69.3641 329.588 69.4911 329.782 69.5681C329.977 69.645 330.192 69.6683 330.401 69.6353C330.61 69.6022 330.804 69.5142 330.959 69.3821C331.113 69.25 331.221 69.0796 331.27 68.8922C331.318 68.7048 331.305 68.5086 331.232 68.3279C331.159 68.1472 331.029 67.99 330.858 67.8758C330.687 67.7616 330.483 67.6955 330.271 67.6856C329.978 67.681 329.695 67.7803 329.483 67.9624C329.27 68.1445 329.144 68.3948 329.132 68.66Z" fill="#263238"/>
<path d="M334.225 68.0972L334.059 73.994L330.642 73.0364L334.225 68.0972Z" fill="#9A4A4D"/>
<path d="M338.994 81.4112C341.772 81.0836 347.43 79.6052 348.319 77.564C347.965 78.5963 347.27 79.5052 346.328 80.168C344.633 81.4868 338.994 82.9736 338.994 82.9736V81.4112Z" fill="#9A4A4D"/>
<path d="M293.796 105.469L325.141 112.953L334.401 148.25L304.593 140.396L293.796 105.469Z" fill="#5751E1"/>
<path opacity="0.15" d="M307.464 128.821C307.177 129.543 305.454 131.542 301.806 131.383L301.361 129.921L307.464 128.821Z" fill="black"/>
<path opacity="0.15" d="M314.474 129.921C314.613 130.862 316.742 132.609 320.344 133.693C324.447 134.936 330.734 134.281 330.734 134.281L330.169 132.525L314.474 129.921Z" fill="black"/>
<path opacity="0.15" d="M302.973 110.576C302.973 110.576 302.862 110.089 302.713 109.492C302.565 108.896 304.417 108.862 306.825 109.434L311.455 110.517C313.862 111.088 315.937 112.038 316.085 112.634L316.344 113.718L302.973 110.576Z" fill="black"/>
<path d="M300.806 106.485C300.713 106.107 301.454 106.015 302.463 106.267L304.315 106.72C304.315 106.72 303.769 104.377 307.825 105.2C311.881 106.023 312.77 108.678 312.77 108.678L314.723 109.182C315.807 109.459 316.779 110.022 316.909 110.366L317.14 111.038L300.991 107.182C300.991 107.182 300.889 106.855 300.806 106.485Z" fill="#37474F"/>
<path d="M303.028 107.653C304.51 107.98 305.121 108.157 305.343 109.081C305.593 110.139 305.695 110.912 305.695 110.912L312.844 112.592C312.844 112.592 312.501 111.256 312.39 110.736C312.279 110.215 312.52 109.896 313.659 110.173L313.751 109.761L302.547 107.208L303.028 107.653Z" fill="#37474F"/>
<path d="M302.778 110.677C302.778 110.677 302.667 110.189 302.519 109.593C302.371 108.997 304.223 108.971 306.63 109.534L311.26 110.626C313.668 111.189 315.742 112.138 315.89 112.735L316.15 113.818L302.778 110.677Z" fill="#37474F"/>
<path d="M369.218 129.232L359.616 122.244C359.616 122.244 338.392 125.671 335.892 125.847C334.573 125.88 333.273 125.55 332.165 124.901C331.056 124.251 330.189 123.314 329.678 122.21C328.752 119.984 327.058 120.261 327.058 120.261C327.058 120.261 327.789 123.075 327.984 123.974C328.178 124.873 322.242 125.654 318.927 124.596C315.612 123.537 310.806 125.058 313.779 129.148C316.751 133.239 322.539 133.718 326.548 133.718C328.229 133.707 329.908 133.606 331.576 133.416C332.873 133.264 334.169 133.147 335.475 133.063C343.744 132.525 365.514 130.291 369.218 129.232Z" fill="#B16668"/>
<path d="M296.991 115.784L298.38 120.286C298.648 121.126 302.287 122.722 304.593 123.302C306.899 123.882 309.418 124.554 308.297 127.502C307.297 130.198 303.5 130.812 301.574 130.736C299.648 130.66 297 128.989 295.963 126.292C294.629 122.848 295.342 119.169 294.814 117.162C294.287 115.154 295.833 114.583 296.991 115.784Z" fill="#B16668"/>
<path d="M360.088 99.5972C358.734 99.5983 357.393 99.3573 356.141 98.8879C354.89 98.4186 353.752 97.7301 352.794 96.8618C351.836 95.9936 351.076 94.9626 350.558 93.8277C350.039 92.6929 349.772 91.4764 349.772 90.248V77.1188C352.505 77.121 355.125 78.1067 357.057 79.8596C358.99 81.6124 360.076 83.9891 360.079 86.468L360.088 99.5972Z" fill="#263238"/>
</g>
<defs>
<clipPath id="clip0_1507_457">
<rect width="332" height="269" fill="white" transform="translate(66)"/>
</clipPath>
</defs>
</svg>
