<svg width="463" height="420" viewBox="0 0 463 420" fill="none" xmlns="http://www.w3.org/2000/svg">
<g clip-path="url(#clip0_1507_312)">
<path d="M231.5 420C103.646 420 0 361.86 0 290.14C0 218.42 103.646 160.28 231.5 160.28C359.354 160.28 463 218.42 463 290.14C463 361.86 359.354 420 231.5 420Z" fill="#F5F5F5" fill-opacity="0.37"/>
<path d="M279.405 388.542C235.316 388.542 199.575 368.495 199.575 343.766C199.575 319.037 235.316 298.99 279.405 298.99C323.493 298.99 359.234 319.037 359.234 343.766C359.234 368.495 323.493 388.542 279.405 388.542Z" fill="#EBEBEB" fill-opacity="0.5"/>
<path d="M52.3853 287.744L61.7502 282.493C61.7502 282.493 64.0392 263.017 62.5162 247.932C60.3742 226.738 46.2833 201.228 29.4803 207.223C12.6773 213.219 37.1842 234.795 42.6372 252.773C48.0912 270.75 52.3853 287.744 52.3853 287.744Z" fill="#5751E1"/>
<path opacity="0.15" d="M52.3853 287.744L61.7502 282.493C61.7502 282.493 64.0392 263.017 62.5162 247.932C60.3742 226.738 46.2833 201.228 29.4803 207.223C12.6773 213.219 37.1842 234.795 42.6372 252.773C48.0912 270.75 52.3853 287.744 52.3853 287.744Z" fill="black"/>
<path d="M57.3084 285.538C57.1594 285.531 57.0184 285.467 56.9174 285.359C56.8164 285.252 56.7624 285.111 56.7684 284.965C58.4094 237.869 34.2754 214.174 34.0394 213.944C33.9324 213.841 33.8724 213.7 33.8724 213.553C33.8724 213.406 33.9324 213.265 34.0394 213.162C34.0914 213.11 34.1534 213.07 34.2224 213.042C34.2904 213.014 34.3634 213 34.4374 213C34.5114 213 34.5844 213.014 34.6534 213.042C34.7214 213.07 34.7834 213.11 34.8354 213.162C35.0914 213.391 59.5684 237.43 57.9074 285.004C57.9054 285.077 57.8874 285.15 57.8564 285.216C57.8244 285.283 57.7794 285.343 57.7234 285.393C57.6674 285.443 57.6024 285.481 57.5314 285.506C57.4594 285.531 57.3844 285.542 57.3084 285.538Z" fill="white"/>
<path d="M46.4977 291.018L53.1607 287.285C53.1607 287.285 54.3007 273.919 47.5497 257.689C41.6537 243.56 27.1107 231.826 19.7797 234.289C12.4497 236.753 12.6367 241.803 16.2137 247.102C19.7897 252.4 41.5157 265.012 46.4977 291.018Z" fill="#5751E1"/>
<path d="M50.0165 289.605C49.8655 289.603 49.7225 289.544 49.6155 289.44C49.5095 289.337 49.4485 289.198 49.4465 289.052C49.5835 259.265 20.8025 239.139 20.5075 238.939C20.4455 238.898 20.3935 238.845 20.3535 238.784C20.3135 238.723 20.2875 238.655 20.2755 238.583C20.2635 238.512 20.2665 238.439 20.2845 238.369C20.3025 238.299 20.3345 238.233 20.3795 238.175C20.4665 238.057 20.5975 237.977 20.7445 237.952C20.8915 237.927 21.0425 237.959 21.1655 238.041C21.4605 238.242 50.7135 258.711 50.5855 289.052C50.5855 289.198 50.5255 289.339 50.4195 289.443C50.3125 289.547 50.1675 289.605 50.0165 289.605Z" fill="white"/>
<path d="M398.883 276.048L390.236 270.377C390.236 270.377 386.433 248.419 389.971 229.048C394.943 201.877 414.271 192.845 421.15 195.709C428.028 198.574 429.502 206.66 416.659 222.164C409.044 231.282 399.148 250.749 398.883 276.048Z" fill="#5751E1"/>
<g opacity="0.15">
<path d="M398.883 276.048L390.236 270.377C390.236 270.377 386.433 248.419 389.971 229.048C394.943 201.877 414.271 192.845 421.15 195.709C428.028 198.574 429.502 206.66 416.659 222.164C409.044 231.282 399.148 250.749 398.883 276.048Z" fill="black"/>
</g>
<path d="M395.915 265.165H396.003C396.091 265.159 396.178 265.136 396.256 265.096C396.334 265.056 396.403 265 396.458 264.933C396.512 264.865 396.552 264.787 396.573 264.704C396.595 264.62 396.598 264.533 396.583 264.449C393.458 238.872 404.572 211.109 416.668 200.063C416.784 199.949 416.85 199.794 416.85 199.633C416.85 199.472 416.784 199.318 416.668 199.204C416.61 199.147 416.542 199.101 416.466 199.07C416.39 199.039 416.308 199.023 416.226 199.023C416.143 199.023 416.062 199.039 415.986 199.07C415.91 199.101 415.841 199.147 415.784 199.204C403.461 210.45 392.141 238.672 395.305 264.621C395.324 264.767 395.395 264.902 395.507 265.001C395.619 265.101 395.763 265.159 395.915 265.165Z" fill="white"/>
<path d="M421.523 290.885C422.898 291.687 426.907 288.794 428.018 288.097C429.921 286.89 431.471 285.226 432.518 283.266C433.693 281.044 434.129 278.522 433.766 276.048C433.565 274.758 433.273 273.482 432.892 272.23C432.548 270.979 432.204 269.728 431.909 268.468C431.473 267.242 431.306 265.941 431.418 264.649C431.801 262.1 434.169 260.353 436.331 258.854C438.709 257.183 441.244 254.978 441.244 251.904C441.123 249.488 440.171 247.182 438.542 245.354C437.068 243.445 435.299 241.784 433.973 239.788C432.935 238.406 432.406 236.725 432.469 235.015C432.64 233.961 433.028 232.951 433.609 232.046C434.769 230.06 436.272 228.227 437.088 226.117C437.903 224.007 437.844 221.296 436.105 219.72C434.719 218.432 432.607 218.222 430.691 218.307C428.885 218.482 427.141 219.039 425.581 219.94C420.501 222.565 417.513 228.294 412.138 230.289C410.065 231.053 407.805 231.187 405.653 231.702C403.501 232.218 401.28 233.239 400.248 235.139C398.214 238.91 401.762 243.665 400.307 247.665C399.01 251.216 395.394 252.515 393.35 255.694C392.521 257.106 392.177 258.738 392.368 260.353C392.483 263.079 393.112 265.762 394.225 268.268C395.504 270.866 396.948 273.385 398.549 275.81C398.549 275.81 421.316 290.761 421.523 290.885Z" fill="#5751E1"/>
<path d="M408.238 282.97C408.32 282.969 408.402 282.952 408.478 282.92C408.554 282.888 408.622 282.842 408.68 282.784C408.737 282.727 408.782 282.659 408.813 282.584C408.843 282.51 408.858 282.43 408.857 282.35C408.307 258.176 420.55 231.75 429.217 224.112C429.34 224.004 429.415 223.853 429.424 223.692C429.433 223.531 429.376 223.373 429.266 223.253C429.209 223.196 429.14 223.15 429.064 223.119C428.988 223.088 428.907 223.072 428.824 223.072C428.742 223.072 428.66 223.088 428.584 223.119C428.508 223.15 428.44 223.196 428.382 223.253C419.538 230.986 407.049 257.871 407.609 282.378C407.61 282.457 407.628 282.535 407.66 282.608C407.692 282.68 407.739 282.746 407.797 282.801C407.856 282.856 407.925 282.899 408 282.928C408.076 282.957 408.157 282.971 408.238 282.97Z" fill="white"/>
<path d="M412.826 253.517C412.884 253.531 412.945 253.531 413.003 253.517C421.041 251.264 431.005 251.035 431.103 251.026C431.185 251.024 431.267 251.007 431.342 250.975C431.417 250.943 431.485 250.897 431.542 250.839C431.598 250.781 431.643 250.713 431.672 250.639C431.701 250.564 431.715 250.485 431.713 250.405C431.714 250.324 431.698 250.244 431.666 250.17C431.634 250.096 431.587 250.028 431.527 249.973C431.467 249.917 431.396 249.874 431.318 249.847C431.24 249.819 431.157 249.808 431.074 249.813C430.976 249.813 420.854 250.052 412.659 252.343C412.501 252.389 412.368 252.495 412.289 252.636C412.209 252.777 412.191 252.943 412.237 253.097C412.275 253.22 412.353 253.327 412.459 253.403C412.566 253.478 412.694 253.519 412.826 253.517Z" fill="white"/>
<path d="M181.228 259.427L184.953 257.336C185.573 256.945 186.09 256.417 186.46 255.794C186.831 255.172 187.045 254.474 187.085 253.756V103.37C187.044 102.653 186.831 101.956 186.463 101.334C186.094 100.712 185.58 100.183 184.962 99.7897L81.441 41.7241C80.782 41.3995 80.053 41.2303 79.314 41.2303C78.575 41.2303 77.846 41.3995 77.187 41.7241L73.462 43.8149C72.842 44.2064 72.325 44.7347 71.955 45.3568C71.584 45.979 71.37 46.6774 71.33 47.3951V197.781C71.371 198.498 71.584 199.195 71.952 199.817C72.321 200.439 72.835 200.968 73.453 201.361L176.974 259.437C177.633 259.762 178.363 259.931 179.102 259.929C179.842 259.927 180.571 259.755 181.228 259.427Z" fill="#455A64"/>
<path d="M71.3298 47.061C71.4768 45.9917 72.3718 45.6002 73.4428 46.2017L176.974 104.277C177.6 104.658 178.117 105.187 178.477 105.814L186.466 101.336C186.108 100.705 185.591 100.172 184.962 99.7897L81.4408 41.7241C80.7818 41.3995 80.0528 41.2303 79.3138 41.2303C78.5748 41.2303 77.8458 41.3995 77.1858 41.7241L73.4618 43.8149C72.8868 44.1747 72.3988 44.6511 72.0308 45.2113C71.6628 45.7716 71.4238 46.4026 71.3298 47.061Z" fill="#455A64"/>
<path d="M177.337 259.599C177.966 259.846 178.642 259.96 179.32 259.932C179.998 259.904 180.662 259.735 181.268 259.437L185.002 257.336C185.619 256.943 186.133 256.414 186.502 255.792C186.87 255.17 187.083 254.473 187.124 253.756V103.37C187.099 102.652 186.886 101.952 186.505 101.336L178.516 105.814C178.904 106.431 179.121 107.135 179.145 107.857V258.243C179.106 259.427 178.339 259.971 177.337 259.599Z" fill="#263238"/>
<path d="M179.105 107.876V258.243C179.105 259.561 178.123 260.095 176.973 259.437L73.4525 201.361C72.8345 200.968 72.3215 200.439 71.9525 199.817C71.5835 199.195 71.3704 198.498 71.3304 197.781V47.3951C71.3304 46.0776 72.3125 45.543 73.4525 46.2017L176.973 104.277C177.596 104.67 178.114 105.201 178.485 105.827C178.856 106.453 179.068 107.155 179.105 107.876Z" fill="#37474F"/>
<path d="M203.278 165.159C204.615 164.386 210.815 160.958 211.139 160.777C211.392 160.63 211.608 160.431 211.77 160.192C211.933 159.954 212.038 159.683 212.079 159.4C212.119 159.117 212.094 158.829 212.005 158.556C211.915 158.284 211.764 158.035 211.562 157.827L187.084 132.317L179.105 136.766L203.573 162.295C203.765 162.494 203.911 162.73 204.002 162.988C204.092 163.247 204.124 163.521 204.096 163.792C204.068 164.063 203.981 164.326 203.84 164.561C203.699 164.797 203.507 165.001 203.278 165.159Z" fill="#455A64"/>
<path d="M179.106 136.794L203.573 162.295C203.845 162.577 204.023 162.932 204.082 163.314C204.142 163.696 204.081 164.086 203.907 164.433C203.734 164.781 203.456 165.069 203.11 165.26C202.765 165.451 202.368 165.535 201.972 165.503L179.106 163.669V136.794Z" fill="#37474F"/>
<path d="M125.217 90.8822C113.151 84.1133 103.373 89.6029 103.373 103.141C103.373 116.679 113.151 133.128 125.217 139.897C137.284 146.666 147.062 141.176 147.062 127.648C147.062 114.12 137.284 97.6511 125.217 90.8822Z" fill="#5751E1"/>
<path d="M125.375 101.537C121.445 99.3409 118.29 101.117 118.29 105.508C118.424 107.896 119.135 110.219 120.366 112.289C121.597 114.359 123.313 116.118 125.375 117.423C129.306 119.619 132.47 117.843 132.47 113.452C132.335 111.064 131.622 108.74 130.389 106.67C129.156 104.6 127.439 102.841 125.375 101.537Z" fill="white"/>
<path d="M111.401 124.946C111.401 117.738 116.619 114.807 123.046 118.416L127.065 120.669C133.491 124.278 138.709 133.08 138.709 140.269V142.246C137.496 142.622 136.229 142.813 134.955 142.809C131.508 142.695 128.151 141.708 125.217 139.945C119.631 136.602 114.906 132.063 111.401 126.674V124.946Z" fill="white"/>
<path d="M139.053 206.908L111.382 191.385C110.203 190.726 109.25 191.261 109.25 192.578V201.237C109.29 201.955 109.504 202.654 109.874 203.276C110.245 203.898 110.762 204.426 111.382 204.818L139.053 220.341C140.232 221 141.186 220.465 141.186 219.148V210.489C141.145 209.771 140.931 209.072 140.561 208.45C140.19 207.828 139.674 207.3 139.053 206.908Z" fill="#5751E1"/>
<path d="M152.604 187.566L97.8607 156.843C96.4557 156.051 95.3067 156.691 95.3067 158.275V161.493C95.3547 162.354 95.6107 163.191 96.0547 163.938C96.4987 164.684 97.1177 165.319 97.8607 165.789L152.634 196.512C154.039 197.304 155.179 196.664 155.179 195.079V191.891C155.134 191.023 154.877 190.178 154.429 189.426C153.982 188.674 153.356 188.036 152.604 187.566Z" fill="#FAFAFA"/>
<path d="M146.196 165.331C145.449 164.911 144.87 164.844 144.457 165.14C144.044 165.436 143.838 166.094 143.838 167.106C143.817 168.03 144.03 168.945 144.457 169.77C144.843 170.516 145.448 171.134 146.196 171.546L147.67 172.376V175.46C147.673 175.566 147.7 175.671 147.749 175.766C147.783 175.852 147.845 175.926 147.926 175.976L148.672 176.396C148.698 176.414 148.729 176.424 148.761 176.424C148.793 176.424 148.824 176.414 148.849 176.396C148.902 176.331 148.927 176.249 148.918 176.167V167.24C148.919 167.135 148.896 167.03 148.849 166.935C148.812 166.85 148.751 166.777 148.672 166.725L146.196 165.331ZM147.67 170.648L146.245 169.846C145.901 169.658 145.611 169.389 145.4 169.064C145.177 168.68 145.068 168.244 145.086 167.803C145.086 167.288 145.194 166.992 145.4 166.906C145.546 166.872 145.698 166.87 145.844 166.901C145.991 166.933 146.128 166.996 146.245 167.087L147.67 167.889V170.648Z" fill="#FAFAFA"/>
<path d="M139.721 161.693C139.623 161.636 139.544 161.636 139.495 161.693C139.432 161.779 139.389 161.876 139.368 161.98L137.098 169.446C137.098 169.446 137.098 169.503 137.098 169.531C137.099 169.638 137.126 169.742 137.176 169.837C137.211 169.923 137.273 169.997 137.353 170.047L138.021 170.419C138.139 170.486 138.228 170.496 138.277 170.419C138.324 170.371 138.358 170.312 138.375 170.247L138.778 168.94L141.726 170.582L142.119 172.338C142.147 172.433 142.183 172.526 142.227 172.615C142.276 172.732 142.367 172.827 142.483 172.882L143.151 173.255C143.175 173.275 143.207 173.286 143.239 173.286C143.271 173.286 143.303 173.275 143.328 173.255C143.379 173.193 143.404 173.114 143.396 173.035C143.402 173 143.402 172.965 143.396 172.93L141.136 162.925C141.109 162.778 141.066 162.634 141.009 162.495C140.96 162.395 140.881 162.311 140.783 162.257L139.721 161.693ZM139.21 167.479L140.193 164.109L141.176 168.615L139.21 167.479Z" fill="#FAFAFA"/>
<path d="M133.658 158.151C133.329 157.95 132.955 157.828 132.567 157.798C132.293 157.774 132.018 157.834 131.781 157.97C131.565 158.106 131.397 158.302 131.299 158.533C131.192 158.768 131.132 159.021 131.123 159.278C131.116 159.384 131.14 159.49 131.191 159.583C131.226 159.67 131.288 159.743 131.368 159.793L132.017 160.156C132.125 160.213 132.204 160.223 132.253 160.156C132.313 160.117 132.364 160.065 132.4 160.003C132.439 159.917 132.496 159.84 132.567 159.776C132.638 159.712 132.722 159.663 132.813 159.631C133.112 159.589 133.416 159.665 133.658 159.841C133.817 159.941 133.968 160.053 134.11 160.175C134.256 160.306 134.385 160.453 134.493 160.614C134.598 160.77 134.683 160.936 134.749 161.111C134.807 161.277 134.836 161.451 134.837 161.626C134.849 161.787 134.818 161.948 134.749 162.094C134.718 162.145 134.676 162.189 134.624 162.22C134.573 162.252 134.514 162.271 134.454 162.276C134.272 162.306 134.086 162.306 133.903 162.276L133.049 162.094C132.73 162.002 132.398 161.964 132.066 161.98C131.829 161.979 131.598 162.053 131.408 162.19C131.228 162.337 131.098 162.533 131.034 162.753C130.938 163.062 130.895 163.385 130.906 163.708C130.907 164.134 130.97 164.558 131.093 164.968C131.213 165.389 131.388 165.793 131.614 166.171C131.852 166.558 132.136 166.917 132.459 167.24C132.789 167.573 133.167 167.859 133.579 168.09C133.882 168.269 134.214 168.395 134.562 168.462C134.845 168.515 135.137 168.492 135.407 168.395C135.653 168.284 135.856 168.101 135.987 167.87C136.147 167.576 136.235 167.249 136.242 166.915C136.243 166.807 136.22 166.699 136.173 166.6C136.13 166.519 136.066 166.45 135.987 166.4L135.338 166.037C135.24 165.98 135.161 165.961 135.102 165.989C135.043 166.018 135.004 166.066 134.965 166.152C134.924 166.25 134.871 166.343 134.808 166.429C134.746 166.512 134.661 166.575 134.562 166.61C134.433 166.639 134.298 166.639 134.169 166.61C133.96 166.562 133.761 166.482 133.579 166.371C133.389 166.266 133.208 166.144 133.039 166.009C132.708 165.754 132.445 165.427 132.272 165.054C132.194 164.863 132.154 164.658 132.154 164.452C132.145 164.378 132.152 164.302 132.174 164.229C132.196 164.157 132.233 164.09 132.282 164.032C132.335 163.987 132.398 163.953 132.466 163.933C132.534 163.913 132.605 163.908 132.675 163.918C132.898 163.927 133.119 163.962 133.334 164.023C133.589 164.08 133.884 164.147 134.228 164.204C134.491 164.268 134.764 164.287 135.033 164.261C135.246 164.248 135.447 164.164 135.603 164.023C135.773 163.861 135.893 163.656 135.947 163.431C136.026 163.099 136.063 162.759 136.055 162.419C136.056 161.998 135.993 161.58 135.869 161.178C135.751 160.763 135.58 160.365 135.358 159.994C135.145 159.625 134.888 159.282 134.591 158.972C134.322 158.657 134.007 158.381 133.658 158.151Z" fill="#FAFAFA"/>
<path d="M127.202 154.542C126.875 154.335 126.5 154.21 126.111 154.18C125.837 154.157 125.563 154.217 125.325 154.351C125.115 154.491 124.951 154.687 124.853 154.915C124.746 155.15 124.686 155.402 124.677 155.659C124.665 155.766 124.689 155.873 124.745 155.965C124.78 156.051 124.842 156.125 124.922 156.175L125.571 156.538C125.669 156.595 125.748 156.614 125.807 156.538C125.869 156.499 125.917 156.443 125.944 156.375C126.034 156.208 126.185 156.079 126.367 156.013C126.513 155.992 126.663 156 126.806 156.036C126.95 156.072 127.084 156.135 127.202 156.223C127.366 156.32 127.521 156.432 127.664 156.557C127.807 156.688 127.932 156.835 128.037 156.996C128.146 157.149 128.232 157.316 128.293 157.492C128.354 157.658 128.387 157.832 128.391 158.008C128.403 158.169 128.372 158.33 128.303 158.476C128.272 158.527 128.23 158.57 128.178 158.602C128.127 158.634 128.068 158.653 128.008 158.657C127.826 158.688 127.639 158.688 127.457 158.657L126.603 158.476C126.283 158.389 125.952 158.351 125.62 158.361C125.383 158.359 125.151 158.433 124.962 158.571C124.782 158.72 124.649 158.916 124.578 159.135C124.492 159.446 124.452 159.767 124.46 160.089C124.461 160.516 124.524 160.94 124.647 161.349C124.767 161.77 124.942 162.175 125.168 162.552C125.405 162.943 125.688 163.305 126.013 163.631C126.345 163.956 126.718 164.238 127.123 164.471C127.426 164.65 127.759 164.776 128.106 164.844C128.385 164.896 128.674 164.873 128.941 164.777C129.192 164.669 129.399 164.485 129.531 164.252C129.692 163.958 129.777 163.63 129.776 163.297C129.788 163.191 129.764 163.084 129.708 162.992C129.673 162.905 129.611 162.832 129.531 162.782L128.882 162.419C128.784 162.361 128.696 162.342 128.646 162.371C128.612 162.386 128.582 162.409 128.558 162.437C128.534 162.465 128.518 162.498 128.509 162.533C128.464 162.63 128.412 162.722 128.352 162.81C128.287 162.894 128.198 162.957 128.096 162.992C127.967 163.021 127.832 163.021 127.703 162.992C127.494 162.944 127.295 162.863 127.114 162.753C126.928 162.645 126.75 162.524 126.583 162.39C126.41 162.259 126.258 162.105 126.131 161.932C126.004 161.767 125.898 161.587 125.816 161.397C125.738 161.206 125.698 161.002 125.699 160.796C125.689 160.721 125.696 160.645 125.718 160.573C125.74 160.501 125.777 160.434 125.826 160.376C125.879 160.33 125.942 160.296 126.01 160.277C126.078 160.257 126.149 160.252 126.219 160.261C126.439 160.274 126.656 160.309 126.868 160.366C127.123 160.423 127.428 160.49 127.762 160.548C128.029 160.611 128.304 160.631 128.578 160.605C128.791 160.594 128.993 160.509 129.148 160.366C129.314 160.204 129.43 159.998 129.482 159.774C129.569 159.447 129.609 159.11 129.6 158.772C129.596 158.349 129.533 157.928 129.413 157.521C129.291 157.108 129.12 156.711 128.902 156.337C128.689 155.966 128.428 155.622 128.126 155.316C127.861 155.013 127.549 154.752 127.202 154.542Z" fill="#FAFAFA"/>
<path d="M120.04 155.736L120.836 160.309C120.859 160.446 120.899 160.581 120.954 160.71C120.992 160.813 121.064 160.9 121.16 160.958L121.907 161.378C122.005 161.435 122.074 161.435 122.123 161.378C122.189 161.3 122.227 161.203 122.231 161.101L123.41 153.034C123.41 153.034 123.41 152.958 123.41 152.929C123.407 152.823 123.38 152.718 123.332 152.623C123.294 152.539 123.233 152.466 123.155 152.413L122.477 152.032C122.42 152.009 122.356 152.009 122.3 152.032C122.241 152.032 122.202 152.108 122.182 152.261L121.406 157.693L120.728 153.616C120.71 153.515 120.68 153.415 120.639 153.32C120.6 153.2 120.516 153.097 120.403 153.034L119.647 152.604C119.539 152.547 119.46 152.557 119.411 152.604C119.368 152.665 119.338 152.733 119.322 152.805L118.635 156.118L117.858 149.817C117.849 149.693 117.812 149.572 117.75 149.463C117.704 149.392 117.644 149.33 117.573 149.282L116.895 148.9C116.87 148.882 116.839 148.871 116.807 148.871C116.775 148.871 116.744 148.882 116.718 148.9C116.69 148.931 116.669 148.968 116.656 149.007C116.642 149.046 116.637 149.088 116.64 149.129C116.636 149.167 116.636 149.206 116.64 149.244L117.819 158.629C117.839 158.766 117.875 158.901 117.927 159.03C117.972 159.131 118.047 159.218 118.143 159.278L118.9 159.698C118.988 159.746 119.057 159.746 119.106 159.698C119.156 159.61 119.196 159.517 119.224 159.421L120.04 155.736Z" fill="#FAFAFA"/>
<path d="M115.441 151.688C115.419 151.159 115.353 150.632 115.244 150.113C115.132 149.605 114.961 149.112 114.733 148.642C114.517 148.186 114.239 147.759 113.908 147.373C113.572 146.989 113.17 146.666 112.719 146.418C112.373 146.19 111.968 146.061 111.55 146.046C111.237 146.049 110.938 146.168 110.714 146.38C110.476 146.64 110.305 146.95 110.213 147.287C110.086 147.725 110.017 148.177 110.007 148.633C110.007 148.805 110.007 148.996 110.007 149.206C110.007 149.416 110.007 149.635 110.007 149.864C110.007 150.094 110.007 150.313 110.007 150.523C110.007 150.733 110.007 150.934 110.007 151.115C110.028 151.641 110.094 152.165 110.203 152.681C110.317 153.187 110.485 153.679 110.705 154.151C110.928 154.606 111.209 155.033 111.54 155.421C111.876 155.8 112.274 156.123 112.719 156.376C113.073 156.602 113.484 156.731 113.908 156.748C114.061 156.751 114.213 156.724 114.355 156.668C114.497 156.612 114.626 156.529 114.733 156.423C114.99 156.156 115.166 155.826 115.244 155.469C115.361 155.028 115.427 154.577 115.441 154.122C115.441 153.951 115.441 153.76 115.441 153.55C115.441 153.34 115.441 153.12 115.441 152.891C115.441 152.662 115.441 152.452 115.441 152.232C115.441 152.012 115.451 151.86 115.441 151.688ZM111.255 149.406C111.233 149.173 111.26 148.937 111.334 148.714C111.409 148.491 111.529 148.285 111.687 148.108C111.943 147.888 112.296 147.898 112.719 148.108C113.178 148.37 113.542 148.763 113.761 149.234C114.039 149.791 114.187 150.401 114.193 151.02C114.193 151.373 114.193 151.764 114.193 152.194C114.193 152.623 114.193 153.005 114.193 153.349C114.215 153.583 114.188 153.818 114.113 154.041C114.039 154.264 113.919 154.471 113.761 154.647C113.505 154.858 113.151 154.838 112.719 154.6C112.268 154.336 111.909 153.947 111.687 153.483C111.408 152.93 111.261 152.323 111.255 151.707C111.255 151.344 111.255 150.953 111.255 150.523C111.255 150.094 111.245 149.75 111.255 149.406Z" fill="#FAFAFA"/>
<path d="M105.723 142.609C104.947 142.179 104.367 142.112 103.964 142.427C103.725 142.683 103.548 142.986 103.444 143.317C103.34 143.647 103.313 143.995 103.364 144.337C103.356 144.985 103.459 145.63 103.669 146.246C103.869 146.819 104.179 147.351 104.583 147.812L103.306 150.514C103.301 150.558 103.301 150.603 103.306 150.647C103.305 150.733 103.325 150.818 103.364 150.895C103.392 150.965 103.44 151.025 103.502 151.067L104.288 151.506C104.416 151.573 104.504 151.583 104.563 151.506C104.615 151.456 104.658 151.398 104.691 151.335L105.9 148.786L107.128 149.473V152.7C107.127 152.805 107.151 152.91 107.197 153.005C107.237 153.088 107.298 153.16 107.374 153.215L108.12 153.635C108.145 153.656 108.177 153.667 108.209 153.667C108.241 153.667 108.273 153.656 108.297 153.635C108.325 153.606 108.347 153.572 108.361 153.534C108.374 153.496 108.379 153.456 108.376 153.416V144.489C108.373 144.383 108.346 144.279 108.297 144.184C108.263 144.097 108.201 144.024 108.12 143.974L105.723 142.609ZM107.108 147.745L105.723 147.019C105.384 146.836 105.095 146.577 104.878 146.265C104.65 145.897 104.541 145.472 104.563 145.043C104.563 144.527 104.671 144.241 104.878 144.184C105.177 144.144 105.48 144.22 105.723 144.394L107.059 145.139L107.108 147.745Z" fill="#FAFAFA"/>
<path d="M99.1383 138.933C98.7823 138.707 98.3733 138.569 97.9493 138.532C97.6423 138.521 97.3423 138.627 97.1143 138.828C96.8543 139.094 96.6743 139.424 96.5933 139.783C96.4613 140.256 96.3883 140.743 96.3773 141.234C96.3773 141.902 96.3773 142.589 96.3773 143.286C96.3973 143.855 96.4693 144.42 96.5933 144.976C96.7053 145.493 96.8773 145.996 97.1043 146.475C97.3233 146.916 97.6013 147.326 97.9303 147.697C98.2583 148.077 98.6503 148.399 99.0893 148.652L101.418 149.883C101.443 149.904 101.474 149.915 101.506 149.915C101.539 149.915 101.57 149.904 101.595 149.883C101.623 149.855 101.645 149.82 101.659 149.782C101.673 149.744 101.677 149.704 101.673 149.664V140.737C101.671 140.631 101.644 140.527 101.595 140.432C101.56 140.345 101.498 140.272 101.418 140.222L99.1383 138.933ZM97.6253 141.902C97.6293 141.643 97.6693 141.387 97.7433 141.138C97.7893 140.95 97.8873 140.778 98.0283 140.642C98.0903 140.582 98.1633 140.535 98.2443 140.504C98.3253 140.472 98.4123 140.458 98.4993 140.46C98.7463 140.476 98.9833 140.555 99.1873 140.69L100.425 141.377V147.602L99.1383 146.886C98.8893 146.745 98.6673 146.564 98.4803 146.351C98.2973 146.142 98.1423 145.911 98.0183 145.664C97.8963 145.401 97.8033 145.125 97.7433 144.843C97.6743 144.548 97.6353 144.247 97.6253 143.945C97.5953 143.248 97.5953 142.57 97.6253 141.902Z" fill="#FAFAFA"/>
<path d="M234.074 0.365926C232.378 0.732611 230.744 1.33045 229.22 2.14169C227.761 2.90382 226.453 3.91249 225.358 5.12039C224.311 6.28233 223.533 7.64997 223.078 9.13018C222.615 10.7146 222.581 12.3887 222.98 13.9897C223.244 15.259 223.761 16.4656 224.503 17.5412C225.181 18.4609 225.988 19.2837 226.901 19.9853C227.798 20.6617 228.754 21.2592 229.76 21.7706L232.59 23.2313C233.443 23.6633 234.252 24.1715 235.008 24.7493C235.691 25.2587 236.215 25.943 236.521 26.7255C236.671 27.083 236.919 27.3935 237.238 27.623C237.389 27.737 237.565 27.8161 237.753 27.8542C237.94 27.8922 238.134 27.8882 238.319 27.8425L242.486 26.9451C242.686 26.9042 242.876 26.8249 243.045 26.7118C243.214 26.5987 243.358 26.4541 243.468 26.2864C243.586 26.1304 243.664 25.9498 243.696 25.7591C243.729 25.5683 243.715 25.3728 243.655 25.1884C243.319 23.9348 242.728 22.7595 241.916 21.7324C241.174 20.8239 240.316 20.012 239.361 19.317C238.43 18.6553 237.444 18.0708 236.413 17.5698C235.43 17.0829 234.448 16.6151 233.593 16.1473C232.797 15.732 232.05 15.236 231.362 14.6675C230.759 14.1768 230.34 13.5051 230.173 12.7581C230.017 12.1094 230.024 11.4337 230.196 10.7886C230.367 10.1435 230.696 9.54824 231.156 9.05381C232.305 7.83493 233.841 7.02492 235.519 6.75295C238.624 6.08465 241.244 7.09983 243.38 9.79848C243.586 10.0931 243.846 10.3486 244.146 10.5527C244.485 10.7161 244.877 10.7435 245.237 10.6291L249.669 9.67437C249.985 9.61502 250.264 9.43654 250.445 9.17792C250.542 9.03974 250.607 8.88296 250.635 8.71823C250.664 8.5535 250.656 8.38467 250.612 8.2232C250.235 6.89658 249.534 5.67812 248.568 4.67168C247.479 3.5045 246.184 2.53471 244.746 1.80754C243.172 1.00787 241.477 0.459838 239.724 0.184532C237.847 -0.112203 235.927 -0.0505905 234.074 0.365926ZM238.781 31.0886C238.391 31.1775 238.053 31.411 237.838 31.7393C237.623 32.0676 237.549 32.4645 237.631 32.8452L238.693 37.5233C238.728 37.7192 238.807 37.9055 238.922 38.07C239.037 38.2345 239.186 38.3736 239.361 38.478C239.525 38.5882 239.712 38.6638 239.908 38.7C240.104 38.7362 240.306 38.7321 240.501 38.6881L245.257 37.6283C245.459 37.5952 245.651 37.5201 245.821 37.408C245.99 37.296 246.133 37.1497 246.239 36.9791C246.349 36.8179 246.424 36.6365 246.46 36.4461C246.495 36.2556 246.491 36.0602 246.446 35.8717L245.374 31.1936C245.283 30.8143 245.043 30.4847 244.705 30.2744C244.368 30.0641 243.959 29.9897 243.566 30.067L238.781 31.0886Z" fill="#5751E1"/>
<path d="M228.827 45.1514C227.643 44.967 226.439 44.9445 225.25 45.0846C224.113 45.2158 223.009 45.5389 221.987 46.0393C221.014 46.5299 220.157 47.2128 219.472 48.0442C218.856 48.8579 218.422 49.7881 218.198 50.7747C217.975 51.7614 217.967 52.7826 218.175 53.7725C218.362 54.5335 218.663 55.2637 219.069 55.9397C219.46 56.5972 219.914 57.2173 220.425 57.7918C220.926 58.3646 221.408 58.9088 221.85 59.4339C222.283 59.9231 222.668 60.4505 223 61.0092C223.311 61.4989 223.468 62.0664 223.452 62.6417C223.46 62.9107 223.538 63.1732 223.678 63.4055C223.749 63.5126 223.842 63.6037 223.953 63.6728C224.063 63.742 224.187 63.7875 224.316 63.8065L227.264 64.2648C227.402 64.289 227.543 64.2864 227.68 64.2568C227.817 64.2273 227.946 64.1716 228.06 64.0929C228.176 64.022 228.273 63.9253 228.343 63.8108C228.413 63.6962 228.454 63.5671 228.463 63.4342C228.587 62.5458 228.52 61.6421 228.267 60.7801C228.035 60.0169 227.705 59.2854 227.284 58.6033C226.871 57.9487 226.397 57.332 225.869 56.7607C225.348 56.1879 224.886 55.6533 224.434 55.1377C224.031 54.6773 223.681 54.1746 223.393 53.6388C223.137 53.1777 223.044 52.6478 223.127 52.1304C223.201 51.6749 223.387 51.2435 223.67 50.8729C223.952 50.5022 224.322 50.2032 224.749 50.0014C225.805 49.5056 227.001 49.3645 228.149 49.6004C229.188 49.748 230.155 50.2044 230.916 50.9069C231.678 51.6094 232.198 52.5236 232.403 53.5242C232.461 53.7649 232.561 53.9942 232.698 54.2021C232.874 54.3833 233.111 54.4955 233.366 54.5171L236.472 55.0041C236.69 55.0446 236.916 55 237.1 54.8799C237.195 54.8168 237.275 54.7347 237.334 54.6392C237.393 54.5437 237.431 54.437 237.444 54.3262C237.537 53.3788 237.385 52.424 237.002 51.548C236.614 50.5286 236.041 49.5846 235.312 48.7602C234.513 47.8575 233.571 47.0841 232.521 46.4689C231.389 45.8018 230.134 45.3543 228.827 45.1514ZM223.756 66.0119C223.621 65.991 223.483 65.9963 223.35 66.0274C223.216 66.0586 223.091 66.1149 222.98 66.1933C222.864 66.2672 222.766 66.3642 222.691 66.4777C222.617 66.5912 222.568 66.7188 222.548 66.852L221.997 70.1267C221.955 70.3923 222.022 70.6636 222.183 70.8816C222.345 71.0996 222.589 71.2469 222.862 71.2914L226.154 71.8165C226.427 71.8576 226.706 71.7924 226.93 71.6351C227.044 71.5602 227.141 71.4628 227.213 71.3494C227.286 71.2359 227.334 71.1088 227.353 70.9764L227.903 67.7017C227.928 67.5703 227.924 67.4353 227.892 67.3054C227.86 67.1754 227.8 67.0535 227.716 66.9475C227.639 66.8368 227.539 66.743 227.422 66.6723C227.305 66.6015 227.175 66.5554 227.038 66.537L223.756 66.0119Z" fill="#5751E1"/>
<g opacity="0.2">
<path d="M228.827 45.1514C227.643 44.967 226.439 44.9445 225.25 45.0846C224.113 45.2158 223.009 45.5389 221.987 46.0393C221.014 46.5299 220.157 47.2128 219.472 48.0442C218.856 48.8579 218.422 49.7881 218.198 50.7747C217.975 51.7614 217.967 52.7826 218.175 53.7725C218.362 54.5335 218.663 55.2637 219.069 55.9397C219.46 56.5972 219.914 57.2173 220.425 57.7918C220.926 58.3646 221.408 58.9088 221.85 59.4339C222.283 59.9231 222.668 60.4505 223 61.0092C223.311 61.4989 223.468 62.0664 223.452 62.6417C223.46 62.9107 223.538 63.1732 223.678 63.4055C223.749 63.5126 223.842 63.6037 223.953 63.6728C224.063 63.742 224.187 63.7875 224.316 63.8065L227.264 64.2648C227.402 64.289 227.543 64.2864 227.68 64.2568C227.817 64.2273 227.946 64.1716 228.06 64.0929C228.176 64.022 228.273 63.9253 228.343 63.8108C228.413 63.6962 228.454 63.5671 228.463 63.4342C228.587 62.5458 228.52 61.6421 228.267 60.7801C228.035 60.0169 227.705 59.2854 227.284 58.6033C226.871 57.9487 226.397 57.332 225.869 56.7607C225.348 56.1879 224.886 55.6533 224.434 55.1377C224.031 54.6773 223.681 54.1746 223.393 53.6388C223.137 53.1777 223.044 52.6478 223.127 52.1304C223.201 51.6749 223.387 51.2435 223.67 50.8729C223.952 50.5022 224.322 50.2032 224.749 50.0014C225.805 49.5056 227.001 49.3645 228.149 49.6004C229.188 49.748 230.155 50.2044 230.916 50.9069C231.678 51.6094 232.198 52.5236 232.403 53.5242C232.461 53.7649 232.561 53.9942 232.698 54.2021C232.874 54.3833 233.111 54.4955 233.366 54.5171L236.472 55.0041C236.69 55.0446 236.916 55 237.1 54.8799C237.195 54.8168 237.275 54.7347 237.334 54.6392C237.393 54.5437 237.431 54.437 237.444 54.3262C237.537 53.3788 237.385 52.424 237.002 51.548C236.614 50.5286 236.041 49.5846 235.312 48.7602C234.513 47.8575 233.571 47.0841 232.521 46.4689C231.389 45.8018 230.134 45.3543 228.827 45.1514ZM223.756 66.0119C223.621 65.991 223.483 65.9963 223.35 66.0274C223.216 66.0586 223.091 66.1149 222.98 66.1933C222.864 66.2672 222.766 66.3642 222.691 66.4777C222.617 66.5912 222.568 66.7188 222.548 66.852L221.997 70.1267C221.955 70.3923 222.022 70.6636 222.183 70.8816C222.345 71.0996 222.589 71.2469 222.862 71.2914L226.154 71.8165C226.427 71.8576 226.706 71.7924 226.93 71.6351C227.044 71.5602 227.141 71.4628 227.213 71.3494C227.286 71.2359 227.334 71.1088 227.353 70.9764L227.903 67.7017C227.928 67.5703 227.924 67.4353 227.892 67.3054C227.86 67.1754 227.8 67.0535 227.716 66.9475C227.639 66.8368 227.539 66.743 227.422 66.6723C227.305 66.6015 227.175 66.5554 227.038 66.537L223.756 66.0119Z" fill="black"/>
</g>
<path d="M201.038 50.2973C200.904 50.3878 200.791 50.5039 200.705 50.6386C200.618 50.7732 200.561 50.9235 200.537 51.0802C200.506 51.2355 200.508 51.3955 200.544 51.5499C200.579 51.7044 200.647 51.85 200.743 51.9776L203.082 55.1759C203.175 55.3061 203.295 55.4164 203.433 55.5001C203.572 55.5839 203.727 55.6392 203.888 55.6628C204.048 55.6932 204.212 55.6911 204.371 55.6566C204.53 55.6221 204.68 55.5559 204.812 55.4623L208.035 53.2379C208.169 53.1486 208.282 53.0326 208.367 52.8977C208.451 52.7627 208.506 52.6118 208.526 52.455C208.557 52.2997 208.555 52.1397 208.519 51.9853C208.484 51.8308 208.416 51.6852 208.32 51.5576L205.951 48.3593C205.76 48.1001 205.471 47.9246 205.147 47.871C204.823 47.8174 204.491 47.8899 204.222 48.0729L201.038 50.2973ZM187.438 28.6349C186.263 29.4351 185.217 30.4004 184.333 31.4991C183.472 32.5211 182.806 33.6852 182.368 34.936C181.96 36.1347 181.823 37.4046 181.965 38.6594C182.132 39.9975 182.653 41.2707 183.478 42.3541C184.092 43.2302 184.88 43.977 185.797 44.55C186.605 45.0416 187.482 45.4148 188.401 45.6574C189.297 45.8849 190.211 46.0382 191.133 46.1157L193.747 46.3448C194.531 46.4057 195.307 46.5367 196.066 46.7363C196.766 46.8907 197.407 47.235 197.913 47.7292C198.142 47.955 198.432 48.1138 198.749 48.1874C198.9 48.2295 199.058 48.2358 199.212 48.2059C199.366 48.176 199.51 48.1108 199.633 48.0156L202.483 46.0489C202.755 45.8599 202.942 45.576 203.003 45.2565C203.04 45.1016 203.039 44.9406 203 44.7863C202.96 44.6321 202.884 44.489 202.777 44.3686C202.112 43.5294 201.28 42.8282 200.331 42.3064C199.476 41.853 198.564 41.5096 197.619 41.2849C196.706 41.0697 195.775 40.9323 194.838 40.8743C193.914 40.8171 193.049 40.7502 192.244 40.6739C191.506 40.6106 190.778 40.4697 190.072 40.2538C189.454 40.054 188.922 39.6612 188.559 39.1368C188.23 38.6939 188.017 38.1806 187.936 37.6404C187.856 37.1001 187.911 36.549 188.097 36.034C188.562 34.7615 189.45 33.6762 190.622 32.9502C192.745 31.48 195.06 31.4322 197.57 32.807C197.822 32.9632 198.102 33.0732 198.395 33.1316C198.548 33.142 198.701 33.1228 198.846 33.0753C198.991 33.0278 199.125 32.9528 199.24 32.8548L202.267 30.7639C202.376 30.6933 202.47 30.6019 202.543 30.4953C202.615 30.3887 202.665 30.269 202.689 30.1434C202.713 30.0135 202.708 29.8802 202.676 29.752C202.644 29.6239 202.585 29.5036 202.502 29.3987C201.788 28.5098 200.86 27.8049 199.8 27.3461C198.596 26.8159 197.306 26.4929 195.987 26.3914C194.537 26.2736 193.077 26.3865 191.664 26.7255C190.139 27.0826 188.702 27.7317 187.438 28.6349Z" fill="#5751E1"/>
<g opacity="0.6">
<path d="M201.038 50.2973C200.904 50.3878 200.791 50.5039 200.705 50.6386C200.618 50.7732 200.561 50.9235 200.537 51.0802C200.506 51.2355 200.508 51.3955 200.544 51.5499C200.579 51.7044 200.647 51.85 200.743 51.9776L203.082 55.1759C203.175 55.3061 203.295 55.4164 203.433 55.5001C203.572 55.5839 203.727 55.6392 203.888 55.6628C204.048 55.6932 204.212 55.6911 204.371 55.6566C204.53 55.6221 204.68 55.5559 204.812 55.4623L208.035 53.2379C208.169 53.1486 208.282 53.0326 208.367 52.8977C208.451 52.7627 208.506 52.6118 208.526 52.455C208.557 52.2997 208.555 52.1397 208.519 51.9853C208.484 51.8308 208.416 51.6852 208.32 51.5576L205.951 48.3593C205.76 48.1001 205.471 47.9246 205.147 47.871C204.823 47.8174 204.491 47.8899 204.222 48.0729L201.038 50.2973ZM187.438 28.6349C186.263 29.4351 185.217 30.4004 184.333 31.4991C183.472 32.5211 182.806 33.6852 182.368 34.936C181.96 36.1347 181.823 37.4046 181.965 38.6594C182.132 39.9975 182.653 41.2707 183.478 42.3541C184.092 43.2302 184.88 43.977 185.797 44.55C186.605 45.0416 187.482 45.4148 188.401 45.6574C189.297 45.8849 190.211 46.0382 191.133 46.1157L193.747 46.3448C194.531 46.4057 195.307 46.5367 196.066 46.7363C196.766 46.8907 197.407 47.235 197.913 47.7292C198.142 47.955 198.432 48.1138 198.749 48.1874C198.9 48.2295 199.058 48.2358 199.212 48.2059C199.366 48.176 199.51 48.1108 199.633 48.0156L202.483 46.0489C202.755 45.8599 202.942 45.576 203.003 45.2565C203.04 45.1016 203.039 44.9406 203 44.7863C202.96 44.6321 202.884 44.489 202.777 44.3686C202.112 43.5294 201.28 42.8282 200.331 42.3064C199.476 41.853 198.564 41.5096 197.619 41.2849C196.706 41.0697 195.775 40.9323 194.838 40.8743C193.914 40.8171 193.049 40.7502 192.244 40.6739C191.506 40.6106 190.778 40.4697 190.072 40.2538C189.454 40.054 188.922 39.6612 188.559 39.1368C188.23 38.6939 188.017 38.1806 187.936 37.6404C187.856 37.1001 187.911 36.549 188.097 36.034C188.562 34.7615 189.45 33.6762 190.622 32.9502C192.745 31.48 195.06 31.4322 197.57 32.807C197.822 32.9632 198.102 33.0732 198.395 33.1316C198.548 33.142 198.701 33.1228 198.846 33.0753C198.991 33.0278 199.125 32.9528 199.24 32.8548L202.267 30.7639C202.376 30.6933 202.47 30.6019 202.543 30.4953C202.615 30.3887 202.665 30.269 202.689 30.1434C202.713 30.0135 202.708 29.8802 202.676 29.752C202.644 29.6239 202.585 29.5036 202.502 29.3987C201.788 28.5098 200.86 27.8049 199.8 27.3461C198.596 26.8159 197.306 26.4929 195.987 26.3914C194.537 26.2736 193.077 26.3865 191.664 26.7255C190.139 27.0826 188.702 27.7317 187.438 28.6349Z" fill="white"/>
</g>
<path d="M274.216 134.808H309.129V52.6268C309.129 45.489 306.21 38.6435 301.016 33.5962C295.821 28.549 288.775 25.7135 281.428 25.7135H278.205C270.859 25.7135 263.813 28.549 258.618 33.5962C253.423 38.6435 250.505 45.489 250.505 52.6268V111.819C250.518 117.921 253.022 123.768 257.467 128.078C261.912 132.388 267.936 134.808 274.216 134.808Z" fill="#263238"/>
<path d="M312.528 332.653C313.146 336.058 313.474 339.507 313.511 342.964C313.639 349.227 314.818 351.452 314.975 356.588C315.162 362.459 314.11 364.655 311.664 367.959C309.217 371.262 302.82 374.25 300.049 368.675C297.278 363.099 297.681 359.443 298.555 353.686C299.449 347.728 299.538 344.434 300.088 339.9C300.54 335.899 301.071 332.854 301.071 332.854L312.528 332.653Z" fill="#263238"/>
<path d="M294.232 291.057L315.457 290.684C315.143 304.451 312.892 319.736 312.509 332.692C312.431 335.126 312.568 351.585 311.625 356.559C310.2 364.083 301.022 363.061 300.531 358.564C300.039 354.068 301.12 334.849 301.091 332.863C301.179 324.577 297.16 310.59 295.087 295.716C294.998 295 294.33 291.773 294.232 291.057Z" fill="#FFA8A7"/>
<path d="M266.964 321.942C266.964 321.942 267.799 321.502 267.947 322.371C268.153 323.402 268.468 325.531 268.929 327.231C269.539 329.589 270.05 333.474 269.686 335.403C269.323 337.332 264.704 339.795 261.707 340.692C258.013 341.8 254.645 343.747 251.881 346.373C248.933 349.084 242.516 351.643 238.124 351.614C232.965 351.614 229.368 349.943 227.668 347.261C225.968 344.578 229.221 344.253 235.117 340.578L239.686 337.713C249.031 331.785 252.46 328.615 255.084 322.686L266.964 321.942Z" fill="#263238"/>
<path d="M255.005 318.266C255.163 314.008 252.136 277.815 252.136 277.815L272.29 286.741C267.976 311.774 267.053 317.683 266.984 321.779C267.072 322.122 267.109 322.476 267.092 322.829C267.092 327.689 261.422 330.314 257.02 333.56C253.278 336.409 249.29 338.938 245.1 341.122C241.897 342.678 235.392 342.821 234.586 340.826C239.951 336.845 247.754 330.887 252.018 326.343C254.101 324.204 254.848 322.533 255.005 318.266Z" fill="#FFA8A7"/>
<path d="M306.761 156.719C314.504 173.226 314.504 186 313.217 207.071C312.077 226.404 310.18 243.445 310.18 243.445C310.475 246.873 315.378 253.565 316.017 268.726C316.607 282.894 315.034 300.909 315.034 300.909C315.034 300.909 304.019 306.838 295.873 300.852C295.873 300.852 288.012 264.392 285.713 246.653C283.747 231.177 280.21 211.405 280.21 211.405L272.771 246.548C274.377 251.534 275.54 256.645 276.25 261.823C277.291 272.258 271.278 292.746 271.278 292.746C271.278 292.746 259.899 296.04 252.951 290.054C252.951 290.054 250.357 256.744 249.384 244.18C248.087 227.349 250.819 181.79 252.951 157.664L306.761 156.719Z" fill="#455A64"/>
<path d="M280.19 211.376L277.134 184.893C277.134 184.893 263.436 183.117 257.226 177.446C259.004 180.148 261.372 182.436 264.162 184.149C266.952 185.862 270.096 186.957 273.371 187.356L277.793 211.997L272.771 246.548L280.19 211.376Z" fill="#263238"/>
<path d="M224.72 150.208C224.154 145.375 223.905 140.512 223.973 135.649C224.278 131.448 225.054 130.76 231.097 123.323C239.253 113.27 246.22 104.229 253.59 95.2452C258.857 88.8295 264.399 87.8462 269.784 88.1326C273.557 88.3331 266.188 105.967 262.483 116.402L241.327 138.532C240.671 139.405 240.37 140.483 240.482 141.558L241.759 160.385L235.421 168.634C235.421 168.634 225.821 160.595 224.72 150.208Z" fill="#FFA8A7"/>
<path d="M290.184 88.7054C294.282 88.9822 301.73 89.6601 301.73 89.6601C306.024 91.9896 307.115 93.9086 307.911 99.4459C308.255 101.814 306.27 108.105 304.57 117.051L301.347 133.634L301.7 141.864C303.371 146.886 307.154 153.12 310.495 162.314C294.085 171.212 280.328 171.546 267.849 169.951C258.337 168.758 253.296 166.524 251.615 164.309C251.969 155.23 252.598 149.616 252.795 140.126C252.863 136.145 252.618 132.116 252.451 127.534C246.073 122.435 245.995 113.957 249.503 108.439C257.59 95.713 265.461 87.7029 270.669 88.1135L290.184 88.7054Z" fill="#5751E1"/>
<path opacity="0.6" d="M290.184 88.7054C294.282 88.9822 301.73 89.6601 301.73 89.6601C306.024 91.9896 307.115 93.9086 307.911 99.4459C308.255 101.814 306.27 108.105 304.57 117.051L301.347 133.634L301.7 141.864C303.371 146.886 307.154 153.12 310.495 162.314C294.085 171.212 280.328 171.546 267.849 169.951C258.337 168.758 253.296 166.524 251.615 164.309C251.969 155.23 252.598 149.616 252.795 140.126C252.863 136.145 252.618 132.116 252.451 127.534C246.073 122.435 245.995 113.957 249.503 108.439C257.59 95.713 265.461 87.7029 270.669 88.1135L290.184 88.7054Z" fill="white"/>
<path opacity="0.1" d="M265.156 127.658C265.156 127.658 272.644 133.309 281.203 130.359C283.606 129.624 285.773 128.298 287.495 126.51C289.216 124.722 290.434 122.532 291.029 120.154C291.029 120.154 291.933 129.653 281.154 132.889C270.708 136.011 265.156 127.658 265.156 127.658Z" fill="black"/>
<path d="M254.996 62.6323C255.32 76.4183 259.909 79.8171 262.228 80.7718C264.547 81.7265 268.988 81.1537 273.312 80.4567V88.7818C273.312 88.7818 268.32 93.8609 268.694 97.6511C269.067 101.441 276.555 101.871 282.136 98.1571C285.216 96.1018 288.001 93.6587 290.42 90.8917C290.884 90.3579 291.138 89.6812 291.137 88.9823V69.5062C291.137 69.5062 293.505 71.9407 297.691 69.1529C298.595 68.5929 299.368 67.8564 299.962 66.9902C300.557 66.1241 300.959 65.1472 301.144 64.1218C301.329 63.0964 301.292 62.0448 301.036 61.034C300.78 60.0231 300.31 59.0751 299.657 58.2501C297.829 56.1593 293.191 56.0161 290.97 59.2048C289.712 61.5821 289.545 63.9784 288.14 63.0237C284.406 60.4078 286.411 54.4313 281.9 51.5671C280.42 50.8166 278.883 50.1782 277.302 49.6577C269.254 46.9559 262.277 44.6837 260.597 39.3373C257.433 41.094 254.603 46.3735 254.996 62.6323Z" fill="#FFA8A7"/>
<path d="M270.865 74.948C269.834 74.948 268.998 74.1358 268.998 73.134C268.998 72.1322 269.834 71.3201 270.865 71.3201C271.897 71.3201 272.732 72.1322 272.732 73.134C272.732 74.1358 271.897 74.948 270.865 74.948Z" fill="#B16668"/>
<path d="M272.103 60.5415C272.103 60.9149 272.216 61.2801 272.428 61.5917C272.64 61.9033 272.941 62.1477 273.295 62.2946C273.648 62.4415 274.038 62.4845 274.417 62.4182C274.795 62.3519 275.145 62.1793 275.423 61.9218C275.702 61.6642 275.896 61.3329 275.983 60.9691C276.069 60.6052 276.044 60.2246 275.91 59.8745C275.777 59.5244 275.54 59.22 275.23 58.9992C274.92 58.7784 274.55 58.6507 274.166 58.632C273.9 58.6191 273.634 58.6589 273.384 58.749C273.134 58.8392 272.906 58.9778 272.713 59.1564C272.52 59.335 272.366 59.5499 272.261 59.788C272.156 60.0261 272.102 60.2825 272.103 60.5415Z" fill="#263238"/>
<path d="M257.216 60.7323C257.196 60.9659 257.224 61.2011 257.299 61.4241C257.373 61.647 257.492 61.8534 257.65 62.0311C257.807 62.2089 257.999 62.3544 258.215 62.4592C258.431 62.5641 258.666 62.6261 258.906 62.6418C259.149 62.6636 259.394 62.6349 259.625 62.5577C259.855 62.4805 260.066 62.3565 260.244 62.194C260.421 62.0315 260.561 61.8341 260.654 61.615C260.747 61.3959 260.791 61.1601 260.783 60.9233C260.809 60.688 260.784 60.4501 260.712 60.2243C260.639 59.9984 260.52 59.7894 260.361 59.6099C260.202 59.4305 260.008 59.2844 259.789 59.1807C259.57 59.077 259.331 59.0177 259.088 59.0067C258.845 58.9956 258.602 59.0329 258.374 59.1163C258.146 59.1997 257.938 59.3275 257.763 59.4917C257.588 59.656 257.449 59.8533 257.355 60.0715C257.261 60.2898 257.214 60.5244 257.216 60.761V60.7323Z" fill="#263238"/>
<path d="M274.628 65.4486C276.323 65.4486 277.949 64.7951 279.148 63.6316C280.348 62.4681 281.023 60.8897 281.025 59.243C281.025 55.0232 276.545 55.0232 274.628 55.0232C272.712 55.0232 268.241 55.0232 268.241 59.243C268.244 60.8881 268.918 62.465 270.115 63.6283C271.312 64.7915 272.935 65.4461 274.628 65.4486ZM274.628 55.997C278.559 55.997 280.013 56.9517 280.013 59.243C280.013 60.6356 279.444 61.9712 278.43 62.956C277.417 63.9407 276.042 64.4939 274.609 64.4939C273.175 64.4939 271.801 63.9407 270.787 62.956C269.774 61.9712 269.204 60.6356 269.204 59.243C269.244 56.904 270.757 55.997 274.628 55.997Z" fill="#455A64"/>
<path d="M258.405 65.4486C260.1 65.4486 261.725 64.7951 262.925 63.6316C264.124 62.4681 264.799 60.8897 264.802 59.243C264.802 55.0232 260.321 55.0232 258.405 55.0232C256.489 55.0232 252.018 55.0232 252.018 59.243C252.02 60.8881 252.694 62.465 253.891 63.6283C255.089 64.7915 256.712 65.4461 258.405 65.4486ZM258.405 55.997C262.276 55.997 263.79 56.9517 263.79 59.243C263.79 60.6356 263.22 61.9712 262.207 62.956C261.193 63.9407 259.818 64.4939 258.385 64.4939C256.952 64.4939 255.577 63.9407 254.564 62.956C253.55 61.9712 252.981 60.6356 252.981 59.243C253.02 56.904 254.533 55.997 258.405 55.997Z" fill="#455A64"/>
<path d="M267.249 57.238L266.935 68.8378L260.656 66.9475L267.249 57.238Z" fill="#F28F8F"/>
<path d="M273.322 80.4853C277.881 79.9029 287.265 77.287 288.729 73.6782C288.14 75.5021 286.992 77.1076 285.438 78.2799C282.637 80.619 273.322 83.2444 273.322 83.2444V80.4853Z" fill="#F28F8F"/>
<path d="M273.096 51.6053L277.262 54.078C277.59 53.5223 277.686 52.865 277.528 52.2428C277.371 51.6205 276.973 51.0811 276.417 50.7365C276.142 50.5744 275.836 50.4682 275.518 50.4242C275.2 50.3803 274.876 50.3995 274.565 50.4807C274.255 50.5619 273.964 50.7034 273.712 50.8967C273.459 51.09 273.25 51.3311 273.096 51.6053Z" fill="#263238"/>
<path d="M256.145 54.3548L260.783 52.7795C260.693 52.4809 260.542 52.2032 260.337 51.9636C260.133 51.724 259.881 51.5276 259.595 51.3863C259.31 51.245 258.998 51.1619 258.678 51.1421C258.359 51.1223 258.038 51.1662 257.737 51.2711C257.115 51.4882 256.603 51.9296 256.306 52.5036C256.01 53.0777 255.952 53.7405 256.145 54.3548Z" fill="#263238"/>
<path d="M268.743 59.7395C268.81 59.7395 268.876 59.7266 268.937 59.7015C268.998 59.6764 269.054 59.6397 269.101 59.5935C269.147 59.5473 269.184 59.4925 269.209 59.4323C269.233 59.3721 269.245 59.3077 269.244 59.243C269.244 58.4506 267.633 57.9351 266.178 57.9351C264.724 57.9351 263.79 58.4506 263.79 59.243C263.821 59.3467 263.885 59.438 263.974 59.503C264.063 59.568 264.171 59.6031 264.282 59.6031C264.393 59.6031 264.501 59.568 264.589 59.503C264.678 59.438 264.743 59.3467 264.773 59.243C264.773 59.1475 265.274 58.9089 266.149 58.9089C266.853 58.8943 267.553 59.011 268.212 59.2526C268.212 59.319 268.226 59.3847 268.253 59.4457C268.28 59.5068 268.32 59.5618 268.369 59.6074C268.419 59.653 268.478 59.6882 268.542 59.711C268.606 59.7337 268.675 59.7434 268.743 59.7395Z" fill="#455A64"/>
<path d="M280.505 59.3193H280.564L291.795 58.3646C292.32 57.8592 292.945 57.4629 293.633 57.1998L280.446 58.3837C280.314 58.4004 280.193 58.4667 280.111 58.5683C280.028 58.67 279.99 58.799 280.004 58.9279C280.027 59.0398 280.089 59.1404 280.181 59.212C280.273 59.2835 280.387 59.3215 280.505 59.3193Z" fill="#455A64"/>
<path d="M326.62 70.6996C322.945 65.926 320.439 62.3267 317.088 58.2883C315.182 55.9684 313.964 54.3072 312.175 51.9299C310.918 50.2878 310.21 48.9035 308.775 48.3975C307.225 47.7804 305.828 46.8496 304.678 45.667C303.97 44.9067 303.314 44.1031 302.712 43.2611C300.606 40.5069 298.105 38.0602 295.284 35.9958C292.336 33.8381 289.044 32.1769 286.008 30.1243C284.2 28.8927 282.264 26.8496 284.465 24.9402C285.14 24.3878 285.948 24.0102 286.813 23.8423C292.169 22.7157 296.826 24.5011 302.064 25.7995C304.339 26.3511 306.564 27.0823 308.716 27.9858C309.775 28.3926 310.768 28.9456 311.664 29.6279C312.917 30.8554 313.944 32.2827 314.701 33.8477C316.99 37.8193 321.903 41.3708 325.343 44.5118C329.362 48.1875 332.958 51.5576 337.547 55.6056C341.674 59.2621 345.713 62.6227 349.496 66.6134C352.631 69.9072 351.461 72.4849 351.048 73.3823C348.494 78.4805 345.634 80.3135 342.205 83.4736C336.309 88.9441 315.919 104.687 309.168 109.89C307.718 110.997 306.579 112.442 305.857 114.091L304.56 117.003C296.856 118.378 291.717 107.141 298.094 93.6126C299.15 91.4251 300.763 89.5356 302.781 88.1231C310.839 82.4234 326.62 70.6996 326.62 70.6996Z" fill="#FFA8A7"/>
<path d="M326.62 70.6995C329.073 73.6302 332.34 75.8142 336.034 76.991C336.034 76.991 331.121 78.213 324.39 72.3416L326.62 70.6995Z" fill="#F28F8F"/>
<path d="M226.724 140.25L227.982 139.2C228.17 139.08 228.384 139.004 228.608 138.979C228.832 138.954 229.058 138.981 229.269 139.057L242.918 142.666C243.606 142.888 244.235 143.253 244.765 143.734C245.294 144.215 245.71 144.802 245.984 145.453L255.81 172.978C255.929 173.202 255.975 173.456 255.944 173.706C255.912 173.956 255.804 174.191 255.633 174.381L254.336 175.47C254.148 175.596 253.93 175.676 253.702 175.703C253.475 175.729 253.244 175.702 253.029 175.622L239.361 172.014C238.673 171.791 238.043 171.426 237.514 170.945C236.985 170.464 236.569 169.878 236.295 169.226C234.33 163.813 228.434 147.115 226.469 141.701C226.233 141.024 226.351 140.508 226.724 140.25Z" fill="#455A64"/>
<path d="M254.524 174.037L244.697 146.513C244.424 145.862 244.009 145.276 243.479 144.796C242.95 144.316 242.319 143.954 241.632 143.735L227.993 140.126C226.725 139.792 226.027 140.498 226.479 141.701C228.445 147.115 234.34 163.812 236.306 169.226C236.58 169.878 236.996 170.464 237.525 170.945C238.054 171.426 238.684 171.791 239.371 172.013L253.011 175.66C254.268 175.947 254.946 175.24 254.524 174.037Z" fill="#5751E1"/>
<path d="M243.115 144.499C243.825 145.021 244.375 145.721 244.707 146.523L254.534 174.038C254.646 174.256 254.693 174.501 254.669 174.744C254.644 174.987 254.55 175.219 254.396 175.412L255.614 174.4C255.789 174.213 255.9 173.978 255.934 173.727C255.967 173.476 255.921 173.222 255.801 172.997L245.975 145.473C245.664 144.724 245.16 144.067 244.511 143.563L243.115 144.499Z" fill="#37474F"/>
<path d="M230.469 152.795C231.452 155.593 234.861 157.464 240.502 158.762C246.142 160.061 249.257 165.875 248.363 167.641C247.469 169.407 238.35 171.059 234.704 170.553C231.059 170.047 227.403 164.93 226.293 163.345C225.182 161.76 223.905 150.704 225.074 149.186C226.244 147.668 228.71 147.907 228.71 147.907L230.469 152.795Z" fill="#F28F8F"/>
</g>
<defs>
<clipPath id="clip0_1507_312">
<rect width="463" height="420" fill="white" transform="matrix(-1 0 0 1 463 0)"/>
</clipPath>
</defs>
</svg>
