<svg width="464" height="421" viewBox="0 0 464 421" fill="none" xmlns="http://www.w3.org/2000/svg">
<path d="M68.3015 389.006C158.711 431.107 305.288 431.119 395.698 389.006C486.108 346.892 486.095 278.638 395.698 236.537C305.301 194.437 158.711 194.437 68.3015 236.537C-22.1084 278.638 -22.0953 346.905 68.3015 389.006Z" fill="#F5F5F5" fill-opacity="0.37"/>
<path d="M395.382 357.892C412.033 357.892 425.532 351.607 425.532 343.854C425.532 336.101 412.033 329.816 395.382 329.816C378.731 329.816 365.232 336.101 365.232 343.854C365.232 351.607 378.731 357.892 395.382 357.892Z" fill="#EBEBEB" fill-opacity="0.5"/>
<path d="M61.4395 345.866L72.106 339.854C78.0614 335.105 82.5943 328.873 85.226 321.816C88.5191 312.945 88.0599 306.201 85.6983 302.817C82.7988 298.65 75.2811 299.381 74.9793 308.15C74.3495 325.431 69.1934 337.418 61.4395 345.866Z" fill="#407BFF"/>
<path opacity="0.2" d="M61.4395 345.866L72.106 339.854C78.0614 335.105 82.5943 328.873 85.226 321.816C88.5191 312.945 88.0599 306.201 85.6983 302.817C82.7988 298.65 75.2811 299.381 74.9793 308.15C74.3495 325.431 69.1934 337.418 61.4395 345.866Z" fill="black"/>
<path d="M61.439 346.507C61.3001 346.506 61.1653 346.461 61.0541 346.38C60.9428 346.298 60.8609 346.185 60.82 346.055C60.7792 345.925 60.7815 345.786 60.8267 345.658C60.872 345.529 60.9577 345.418 61.0716 345.341C85.7372 328.675 80.9615 305.432 80.9091 305.201C80.891 305.117 80.89 305.03 80.9063 304.946C80.9225 304.861 80.9557 304.781 81.0038 304.709C81.0519 304.637 81.1141 304.575 81.1867 304.526C81.2594 304.477 81.3412 304.443 81.4273 304.426C81.5134 304.408 81.6023 304.407 81.6888 304.423C81.7753 304.439 81.8578 304.471 81.9315 304.518C82.0052 304.565 82.0687 304.626 82.1184 304.697C82.1681 304.768 82.203 304.848 82.2211 304.932C82.2211 305.176 87.2591 329.213 61.8588 346.392C61.7356 346.474 61.5881 346.515 61.439 346.507Z" fill="white"/>
<path d="M40.0669 357.93C40.0669 357.93 36.3539 354.981 37.2461 350.982C38.1382 346.982 40.5392 344.11 36.4326 338.956C32.3261 333.803 31.1846 326.931 36.0915 323.213C39.8307 320.329 45.6691 324.406 47.7683 316.803C49.3165 311.24 48.7917 298.92 56.047 294.817C63.3024 290.715 67.855 296.894 66.7136 305.253C65.7165 312.727 64.2995 319.919 65.4016 321.919C67.527 325.765 71.1613 325.239 70.9907 332.264C70.8464 338.803 64.5094 344.213 64.5094 344.213L40.0669 357.93Z" fill="#407BFF"/>
<path d="M52.2556 351.661C52.0952 351.659 51.9408 351.602 51.8204 351.498C51.6999 351.395 51.6216 351.252 51.5996 351.097C49.7234 335.905 54.2236 309.676 57.8972 301.881C57.9281 301.795 57.9777 301.716 58.0425 301.649C58.1072 301.583 58.1858 301.531 58.2728 301.497C58.3598 301.463 58.4533 301.448 58.5469 301.452C58.6406 301.456 58.7322 301.48 58.8156 301.522C58.8939 301.556 58.9644 301.606 59.0228 301.667C59.0812 301.729 59.1265 301.801 59.1558 301.88C59.1852 301.959 59.198 302.043 59.1937 302.127C59.1893 302.21 59.1678 302.293 59.1305 302.368C55.4962 310.06 51.1535 336.367 52.951 350.892C52.9694 351.06 52.9191 351.228 52.8109 351.361C52.7028 351.493 52.5456 351.578 52.3737 351.597L52.2556 351.661Z" fill="white"/>
<path d="M51.9012 339.828C51.8008 339.833 51.701 339.811 51.6126 339.764C47.0599 337.597 44.1735 329.867 44.0554 329.508C44.0233 329.428 44.0078 329.343 44.01 329.257C44.0121 329.172 44.0318 329.087 44.0679 329.009C44.104 328.931 44.1558 328.861 44.2201 328.803C44.2845 328.744 44.3602 328.699 44.4426 328.67C44.5251 328.641 44.6127 328.628 44.7003 328.633C44.7879 328.637 44.8737 328.659 44.9526 328.697C45.0315 328.734 45.1018 328.787 45.1596 328.851C45.2173 328.916 45.2612 328.991 45.2887 329.072C45.2887 329.149 48.1095 336.636 52.1898 338.572C52.3237 338.635 52.4315 338.741 52.4957 338.872C52.5599 339.003 52.5765 339.152 52.543 339.293C52.5094 339.435 52.4277 339.561 52.311 339.651C52.1944 339.742 52.0499 339.79 51.9012 339.79V339.828Z" fill="white"/>
<path d="M51.822 344.956C51.6905 344.956 51.5622 344.917 51.4543 344.844C51.3464 344.77 51.2641 344.666 51.2185 344.546C51.1532 344.389 51.1538 344.214 51.2201 344.058C51.2864 343.902 51.4132 343.778 51.5727 343.713C59.2348 340.713 64.0105 331.803 64.0629 331.7C64.143 331.549 64.2812 331.435 64.4473 331.383C64.6134 331.332 64.7937 331.346 64.9485 331.425C65.1034 331.503 65.2201 331.638 65.273 331.8C65.3259 331.963 65.3107 332.139 65.2306 332.29C65.0207 332.675 60.1794 341.726 52.1106 344.905C52.0207 344.947 51.9211 344.964 51.822 344.956Z" fill="white"/>
<path d="M319.641 275.985C319.641 275.985 313.908 266.908 313.344 257.049C312.78 247.191 314.997 243.088 318.041 241.909C321.085 240.73 321.321 244.358 322.882 246.499C324.443 248.64 327.632 247.422 328.812 240.742C329.993 234.063 334.296 222.794 343.244 220.602C353.084 218.218 347.81 229.499 345.33 233.897C342.851 238.294 340.935 244.294 342.562 245.922C344.189 247.55 346.721 244.537 349.122 247.332C352.048 250.704 342.956 262.844 337.734 265.78L319.641 275.985Z" fill="#407BFF"/>
<path d="M327.499 272.177C327.413 272.174 327.329 272.154 327.25 272.119C327.172 272.083 327.102 272.033 327.043 271.971C326.985 271.909 326.939 271.837 326.909 271.758C326.88 271.679 326.866 271.595 326.87 271.51C327.758 255.652 332.819 240.285 341.564 226.897C341.614 226.827 341.677 226.768 341.751 226.723C341.824 226.678 341.907 226.648 341.992 226.634C342.078 226.621 342.166 226.625 342.25 226.646C342.334 226.667 342.413 226.704 342.482 226.756C342.62 226.856 342.712 227.004 342.739 227.169C342.766 227.335 342.726 227.504 342.627 227.64C334.038 240.833 329.068 255.962 328.195 271.575C328.19 271.659 328.168 271.741 328.13 271.817C328.092 271.893 328.04 271.961 327.975 272.017C327.911 272.073 327.835 272.116 327.754 272.143C327.672 272.171 327.586 272.182 327.499 272.177Z" fill="white"/>
<path d="M328.248 264.6C328.138 264.599 328.03 264.573 327.933 264.523C324.259 262.536 322.226 256.639 322.147 256.396C322.118 256.316 322.106 256.231 322.11 256.146C322.115 256.062 322.137 255.979 322.175 255.902C322.213 255.826 322.266 255.758 322.331 255.702C322.396 255.646 322.472 255.602 322.554 255.575C322.719 255.523 322.899 255.536 323.054 255.613C323.209 255.69 323.326 255.824 323.38 255.985C323.38 255.985 325.348 261.665 328.628 263.395C328.777 263.481 328.886 263.62 328.932 263.782C328.979 263.945 328.959 264.118 328.878 264.267C328.818 264.377 328.727 264.468 328.615 264.527C328.502 264.587 328.375 264.612 328.248 264.6Z" fill="white"/>
<path d="M328.891 260.716C328.745 260.714 328.605 260.666 328.491 260.578C328.377 260.489 328.296 260.367 328.261 260.229C328.239 260.148 328.235 260.064 328.247 259.981C328.259 259.898 328.288 259.819 328.332 259.747C328.376 259.676 328.434 259.613 328.503 259.564C328.572 259.515 328.65 259.479 328.733 259.46C338.206 257.114 341.486 252.268 341.512 252.216C341.559 252.145 341.619 252.083 341.69 252.034C341.761 251.985 341.841 251.951 341.926 251.932C342.011 251.914 342.098 251.912 342.184 251.927C342.269 251.941 342.351 251.972 342.424 252.018C342.497 252.063 342.561 252.122 342.61 252.192C342.66 252.261 342.696 252.339 342.715 252.422C342.733 252.505 342.735 252.59 342.72 252.674C342.706 252.757 342.674 252.837 342.627 252.909C342.483 253.126 339.072 258.216 329.061 260.703L328.891 260.716Z" fill="white"/>
<path d="M176.895 256.062C176.895 256.062 164.313 253.062 163.657 230.038C162.962 205.193 166.74 176.194 151.849 173.848C136.958 171.502 128.692 189.232 128.876 209.936C129.047 228.063 136.525 267.421 176.843 275.138L176.895 256.062Z" fill="#407BFF"/>
<path opacity="0.2" d="M176.895 256.062C176.895 256.062 164.313 253.062 163.657 230.038C162.962 205.193 166.74 176.194 151.849 173.848C136.958 171.502 128.692 189.232 128.876 209.936C129.047 228.063 136.525 267.421 176.843 275.138L176.895 256.062Z" fill="black"/>
<path d="M176.895 272.78H176.777C167.711 271.164 160.325 266.28 154.827 258.28C138.532 234.525 143.662 190.167 145.355 182.424C145.393 182.259 145.494 182.115 145.639 182.022C145.783 181.929 145.959 181.894 146.129 181.924C146.299 181.964 146.446 182.066 146.542 182.209C146.637 182.352 146.672 182.526 146.641 182.693C144.974 190.385 139.871 234.179 155.916 257.562C158.252 261.189 161.333 264.301 164.965 266.702C168.597 269.103 172.7 270.741 177.013 271.51C177.099 271.526 177.181 271.558 177.253 271.604C177.326 271.651 177.389 271.711 177.438 271.781C177.487 271.852 177.521 271.931 177.538 272.014C177.555 272.097 177.555 272.183 177.538 272.267C177.51 272.413 177.43 272.544 177.313 272.638C177.195 272.732 177.047 272.782 176.895 272.78Z" fill="white"/>
<path d="M176.895 331.867C163.893 333.585 142.783 333.559 130.595 324.175C118.406 314.791 120.951 306.714 125.635 303.342C130.319 299.971 134.386 296.125 126.331 288.638C118.275 281.151 105.339 269.126 101.14 251.088C96.9419 233.05 99.0148 221.769 107.254 218.013C115.244 214.372 117.357 220.166 122.25 232.115C127.144 244.063 138.152 233.82 147.572 237.55C156.992 241.281 156.612 248.665 157.202 255.011C157.792 261.357 160.902 263.113 166.242 263.113C171.582 263.113 176.895 266.113 176.895 272.087V331.867Z" fill="#407BFF"/>
<path d="M176.896 310.919C176.839 310.931 176.781 310.931 176.725 310.919C176.161 310.765 162.713 306.945 143.125 289.369C122.264 270.651 112.424 242.576 112.319 242.294C112.269 242.132 112.284 241.958 112.363 241.807C112.441 241.657 112.576 241.542 112.739 241.486C112.902 241.433 113.081 241.445 113.236 241.519C113.39 241.593 113.509 241.724 113.565 241.883C113.657 242.165 123.405 269.934 144.017 288.42C163.33 305.765 176.935 309.65 177.079 309.688C177.162 309.712 177.239 309.751 177.306 309.804C177.374 309.857 177.429 309.922 177.471 309.995C177.512 310.069 177.538 310.15 177.548 310.234C177.557 310.318 177.55 310.402 177.525 310.483C177.483 310.613 177.398 310.725 177.285 310.804C177.171 310.882 177.035 310.923 176.896 310.919Z" fill="white"/>
<path d="M148.596 293.83C148.464 293.832 148.335 293.793 148.226 293.72C148.118 293.646 148.036 293.541 147.992 293.42C143.781 282.856 142.823 260.254 142.744 259.293C142.741 259.124 142.804 258.96 142.922 258.836C143.039 258.711 143.201 258.636 143.374 258.626C143.545 258.629 143.71 258.693 143.836 258.806C143.962 258.92 144.04 259.075 144.056 259.242C144.056 259.472 145.04 282.587 149.173 292.958C149.205 293.037 149.22 293.122 149.218 293.207C149.216 293.291 149.197 293.375 149.161 293.453C149.126 293.53 149.075 293.6 149.012 293.658C148.948 293.716 148.874 293.762 148.793 293.792C148.729 293.814 148.663 293.827 148.596 293.83Z" fill="white"/>
<path d="M148.49 309.022C147.281 309.031 146.072 308.971 144.869 308.842C144.783 308.832 144.7 308.806 144.624 308.764C144.548 308.722 144.482 308.667 144.428 308.6C144.375 308.533 144.335 308.457 144.312 308.376C144.288 308.294 144.281 308.209 144.292 308.124C144.302 308.04 144.329 307.959 144.372 307.885C144.414 307.811 144.471 307.746 144.54 307.694C144.608 307.641 144.686 307.602 144.769 307.58C144.853 307.557 144.94 307.55 145.027 307.56C145.145 307.56 157.359 308.919 162.962 303.342C163.02 303.275 163.092 303.22 163.173 303.181C163.254 303.142 163.343 303.12 163.433 303.116C163.523 303.112 163.613 303.126 163.698 303.158C163.782 303.189 163.859 303.238 163.923 303.3C163.988 303.362 164.038 303.436 164.072 303.518C164.105 303.6 164.121 303.688 164.118 303.776C164.116 303.865 164.094 303.951 164.055 304.031C164.017 304.111 163.961 304.182 163.893 304.24C159.839 308.329 152.767 309.022 148.49 309.022Z" fill="white"/>
<path d="M189.858 349.02L313.186 279.433C313.458 279.34 313.693 279.166 313.86 278.937C314.026 278.707 314.116 278.433 314.116 278.151C314.116 277.87 314.026 277.595 313.86 277.366C313.693 277.136 313.458 276.962 313.186 276.869L301.785 270.459C301.079 270.112 300.299 269.931 299.509 269.931C298.718 269.931 297.939 270.112 297.232 270.459L173.865 339.982C173.593 340.075 173.358 340.249 173.191 340.478C173.025 340.708 172.936 340.983 172.936 341.264C172.936 341.545 173.025 341.82 173.191 342.05C173.358 342.279 173.593 342.453 173.865 342.546L185.306 348.956C186.007 349.313 186.784 349.505 187.574 349.516C188.365 349.527 189.147 349.357 189.858 349.02Z" fill="#E0E0E0"/>
<path d="M309.801 10.7644L198.596 73.5055C196.943 74.5597 195.567 75.9795 194.58 77.6499C193.593 79.3204 193.023 81.1945 192.915 83.1205V340.892C192.915 344.431 195.46 345.866 198.596 344.097L309.801 281.356C311.456 280.304 312.834 278.885 313.821 277.214C314.808 275.543 315.377 273.668 315.482 271.741V13.9694C315.482 10.4311 312.95 8.99524 309.801 10.7644Z" fill="#455A64"/>
<path d="M198.596 73.5055L309.801 10.7644C312.609 9.17473 314.931 10.1619 315.403 12.9182C315.141 11.1852 314.506 9.52618 313.541 8.05016C312.575 6.57415 311.3 5.31461 309.801 4.35441L305.183 1.79041C303.422 0.917622 301.476 0.462769 299.502 0.462769C297.528 0.462769 295.581 0.917622 293.821 1.79041L182.603 64.4802C180.928 65.5065 179.546 66.9312 178.588 68.6211L194.581 77.5951C195.539 75.9186 196.922 74.5105 198.596 73.5055Z" fill="#37474F"/>
<path d="M176.896 331.867C177.003 333.793 177.574 335.667 178.561 337.338C179.548 339.008 180.923 340.428 182.576 341.482L187.208 344.046C188.811 344.83 190.565 345.273 192.356 345.349C194.146 345.424 195.933 345.128 197.599 344.482C194.975 345.482 192.889 344.008 192.889 340.841V83.1205C192.955 81.1864 193.528 79.3012 194.555 77.6464L178.562 68.6724C177.549 70.3147 176.976 72.1796 176.896 74.0952V331.867Z" fill="#263238"/>
<path d="M201.653 107.85L306.784 48.5578C308.673 47.5065 310.195 48.3655 310.195 50.4808V241.268C310.132 242.424 309.79 243.55 309.197 244.552C308.604 245.555 307.777 246.406 306.784 247.037L201.692 306.33C199.803 307.394 198.281 306.535 198.281 304.407V113.619C198.341 112.467 198.677 111.344 199.263 110.342C199.849 109.34 200.667 108.486 201.653 107.85Z" fill="white"/>
<path d="M254.198 51.9038C253.618 52.276 253.135 52.7762 252.789 53.364C252.443 53.9519 252.242 54.611 252.204 55.2882C252.204 56.5702 253.096 57.0446 254.198 56.4164C254.781 56.0464 255.265 55.5468 255.612 54.9585C255.959 54.3702 256.158 53.7099 256.193 53.0319C256.193 51.7884 255.3 51.2884 254.198 51.9038Z" fill="#37474F"/>
<path d="M254.199 285.805C251.906 287.271 249.998 289.244 248.63 291.565C247.262 293.886 246.473 296.489 246.327 299.163C246.327 304.073 249.856 306.073 254.199 303.612C256.492 302.145 258.399 300.171 259.767 297.851C261.134 295.53 261.924 292.927 262.071 290.253C262.097 285.343 258.555 283.343 254.199 285.805Z" fill="#37474F"/>
<path d="M235.319 71.7492C234.166 72.4971 233.209 73.4994 232.525 74.6752C231.841 75.851 231.45 77.1674 231.383 78.5181C231.383 81.0052 233.167 82.018 235.319 80.7744C236.484 80.0336 237.454 79.0344 238.149 77.8582C238.845 76.6819 239.246 75.3619 239.32 74.0055C239.32 71.5184 237.536 70.5056 235.319 71.7492Z" fill="#37474F"/>
<path d="M245.12 70.903C245.12 72.5696 246.432 73.1978 247.967 72.3132L274.207 57.4805C275.02 56.9845 275.701 56.3079 276.196 55.506C276.691 54.704 276.985 53.7992 277.054 52.8653C277.054 51.2115 275.742 50.5833 274.207 51.4679L247.967 66.3006C247.156 66.7954 246.476 67.4699 245.981 68.2695C245.486 69.0691 245.191 69.9713 245.12 70.903Z" fill="#37474F"/>
<path d="M185.765 116.106C186.696 116.699 187.471 117.498 188.028 118.438C188.584 119.377 188.905 120.432 188.967 121.516C188.967 123.516 187.536 124.324 185.765 123.324C184.837 122.729 184.065 121.93 183.512 120.99C182.958 120.05 182.638 118.997 182.577 117.914C182.577 115.927 184.007 115.119 185.765 116.106Z" fill="#37474F"/>
<path d="M185.765 140.182C186.696 140.775 187.471 141.574 188.028 142.513C188.584 143.453 188.905 144.508 188.967 145.592C188.967 147.579 187.536 148.387 185.765 147.4C184.837 146.805 184.065 146.006 183.512 145.066C182.958 144.126 182.638 143.073 182.577 141.99C182.577 139.99 184.007 139.182 185.765 140.182Z" fill="#37474F"/>
<path d="M184.768 116.594C185.699 117.186 186.474 117.985 187.03 118.925C187.586 119.865 187.908 120.919 187.969 122.004C187.969 123.991 186.539 124.798 184.768 123.811C183.837 123.219 183.062 122.42 182.505 121.48C181.949 120.54 181.628 119.485 181.566 118.401C181.58 116.401 183.01 115.632 184.768 116.594Z" fill="#455A64"/>
<path d="M184.768 140.657C185.7 141.251 186.477 142.051 187.033 142.994C187.589 143.936 187.91 144.993 187.969 146.08C187.969 148.067 186.539 148.874 184.768 147.874C183.834 147.284 183.058 146.486 182.501 145.545C181.945 144.605 181.624 143.549 181.566 142.464C181.58 140.477 183.01 139.67 184.768 140.657Z" fill="#455A64"/>
<path d="M331.475 56.519C331.475 54.3909 329.953 53.5319 328.064 54.596L315.482 61.6854L222.973 113.888C221.979 114.519 221.152 115.371 220.559 116.373C219.966 117.376 219.625 118.501 219.562 119.657V310.393C219.562 312.522 221.083 313.381 222.973 312.316L315.521 260.101L328.064 253.024C329.058 252.393 329.885 251.542 330.477 250.539C331.07 249.536 331.412 248.411 331.475 247.255V56.519Z" fill="white"/>
<path d="M332.788 56.519C332.87 55.8761 332.757 55.2237 332.462 54.6433C332.167 54.063 331.704 53.5805 331.129 53.2562C330.555 52.932 329.896 52.7803 329.234 52.8202C328.572 52.8601 327.937 53.0899 327.408 53.4806L315.404 60.2624L222.317 112.824C221.119 113.564 220.122 114.577 219.414 115.776C218.705 116.975 218.306 118.325 218.25 119.709V310.393C218.197 311.034 218.323 311.676 218.614 312.251C218.905 312.827 219.351 313.315 219.903 313.663C220.373 313.929 220.908 314.067 221.451 314.06C222.22 314.037 222.97 313.82 223.629 313.432L316.781 260.87L328.76 254.114C329.951 253.367 330.943 252.353 331.65 251.155C332.358 249.957 332.761 248.611 332.827 247.229L332.788 56.519ZM315.43 258.678L314.354 259.293L222.37 311.188C222.215 311.304 222.036 311.385 221.845 311.425C221.655 311.465 221.457 311.463 221.268 311.419C221.097 311.316 220.926 310.958 220.926 310.368V119.657C220.994 118.727 221.278 117.823 221.755 117.015C222.232 116.206 222.891 115.514 223.682 114.991L315.574 63.07L328.694 55.6472C328.849 55.5312 329.028 55.4502 329.219 55.4103C329.409 55.3704 329.607 55.3725 329.796 55.4165C329.967 55.519 330.137 55.878 330.137 56.4677V247.255C330.069 248.186 329.786 249.089 329.309 249.898C328.832 250.706 328.173 251.398 327.382 251.921L315.404 258.678H315.43Z" fill="#407BFF"/>
<path d="M275.519 100.838C287.327 94.197 296.839 99.5557 296.839 112.876C296.839 126.196 287.288 142.362 275.519 148.951C263.751 155.541 254.199 150.233 254.199 136.926C254.199 123.619 263.751 107.491 275.519 100.838Z" fill="#407BFF"/>
<path d="M275.519 111.299C279.337 109.145 282.433 110.889 282.433 115.145C282.303 117.49 281.61 119.771 280.408 121.805C279.207 123.839 277.532 125.567 275.519 126.85C271.701 129.003 268.604 127.26 268.604 123.004C268.734 120.659 269.428 118.377 270.629 116.343C271.831 114.31 273.506 112.581 275.519 111.299Z" fill="#407BFF"/>
<path d="M288.993 134.272C288.993 127.196 283.915 124.324 277.631 127.862L273.695 130.08C267.424 133.618 262.333 142.234 262.333 149.31V151.22C265.967 152.387 270.533 151.759 275.453 148.951C280.903 145.666 285.512 141.206 288.927 135.913L288.993 134.272Z" fill="#407BFF"/>
<path opacity="0.7" d="M275.519 111.299C279.337 109.145 282.433 110.889 282.433 115.145C282.303 117.49 281.61 119.771 280.408 121.805C279.207 123.839 277.532 125.567 275.519 126.85C271.701 129.003 268.604 127.26 268.604 123.004C268.734 120.659 269.428 118.377 270.629 116.343C271.831 114.31 273.506 112.581 275.519 111.299Z" fill="white"/>
<path opacity="0.7" d="M288.993 134.272C288.993 127.196 283.915 124.324 277.631 127.862L273.695 130.08C267.424 133.618 262.333 142.234 262.333 149.31V151.22C265.967 152.387 270.533 151.759 275.453 148.951C280.903 145.666 285.512 141.206 288.927 135.913L288.993 134.272Z" fill="white"/>
<path d="M234.27 178.245L261.704 162.771C263.016 162.066 263.973 162.63 263.973 164.053V164.938C263.932 165.708 263.705 166.458 263.31 167.126C262.916 167.795 262.365 168.363 261.704 168.784L234.27 184.257C233.023 184.963 232 184.386 232 182.975V182.091C232.043 181.321 232.27 180.571 232.665 179.903C233.059 179.235 233.609 178.667 234.27 178.245Z" fill="#407BFF"/>
<path opacity="0.1" d="M234.27 178.245L261.704 162.771C263.016 162.066 263.973 162.63 263.973 164.053V164.938C263.932 165.708 263.705 166.458 263.31 167.126C262.916 167.795 262.365 168.363 261.704 168.784L234.27 184.257C233.023 184.963 232 184.386 232 182.975V182.091C232.043 181.321 232.27 180.571 232.665 179.903C233.059 179.235 233.609 178.667 234.27 178.245Z" fill="black"/>
<path d="M233.141 196.924L316.139 150.105C316.755 149.746 317.267 150.028 317.267 150.746V160.207C317.244 160.591 317.13 160.965 316.934 161.298C316.738 161.632 316.466 161.917 316.139 162.13L233.141 208.949C232.512 209.308 232 209.013 232 208.308V198.847C232.023 198.461 232.138 198.086 232.336 197.752C232.534 197.418 232.81 197.134 233.141 196.924Z" fill="#407BFF"/>
<path opacity="0.2" d="M233.141 196.924L316.139 150.105C316.755 149.746 317.267 150.028 317.267 150.746V160.207C317.244 160.591 317.13 160.965 316.934 161.298C316.738 161.632 316.466 161.917 316.139 162.13L233.141 208.949C232.512 209.308 232 209.013 232 208.308V198.847C232.023 198.461 232.138 198.086 232.336 197.752C232.534 197.418 232.81 197.134 233.141 196.924Z" fill="white"/>
<path d="M234.27 220.333L261.704 204.859C263.016 204.154 263.973 204.731 263.973 206.141V207.026C263.933 207.796 263.706 208.547 263.312 209.215C262.917 209.884 262.366 210.452 261.704 210.872L234.27 226.346C233.023 227.063 232 226.487 232 225.064V224.179C232.045 223.409 232.273 222.66 232.667 221.993C233.062 221.325 233.61 220.756 234.27 220.333Z" fill="#407BFF"/>
<path opacity="0.1" d="M234.27 220.333L261.704 204.859C263.016 204.154 263.973 204.731 263.973 206.141V207.026C263.933 207.796 263.706 208.547 263.312 209.215C262.917 209.884 262.366 210.452 261.704 210.872L234.27 226.346C233.023 227.063 232 226.487 232 225.064V224.179C232.045 223.409 232.273 222.66 232.667 221.993C233.062 221.325 233.61 220.756 234.27 220.333Z" fill="black"/>
<path d="M233.141 239.012L316.139 192.193C316.755 191.834 317.267 192.129 317.267 192.834V202.295C317.244 202.679 317.13 203.053 316.934 203.386C316.738 203.72 316.466 204.005 316.139 204.218L233.141 251.037C232.512 251.396 232 251.114 232 250.396V240.935C232.023 240.549 232.138 240.174 232.336 239.84C232.534 239.506 232.81 239.222 233.141 239.012Z" fill="#407BFF"/>
<path opacity="0.2" d="M233.141 239.012L316.139 192.193C316.755 191.834 317.267 192.129 317.267 192.834V202.295C317.244 202.679 317.13 203.053 316.934 203.386C316.738 203.72 316.466 204.005 316.139 204.218L233.141 251.037C232.512 251.396 232 251.114 232 250.396V240.935C232.023 240.549 232.138 240.174 232.336 239.84C232.534 239.506 232.81 239.222 233.141 239.012Z" fill="white"/>
<path d="M266.243 244.383L299.043 225.91C300.355 225.192 301.326 225.769 301.326 227.192V237.089C301.283 237.86 301.054 238.611 300.657 239.279C300.26 239.948 299.707 240.515 299.043 240.935L266.243 259.421C264.931 260.126 263.974 259.549 263.974 258.139V248.229C264.019 247.46 264.248 246.711 264.642 246.044C265.036 245.376 265.585 244.807 266.243 244.383Z" fill="#407BFF"/>
<path opacity="0.1" d="M266.243 244.383L299.043 225.91C300.355 225.192 301.326 225.769 301.326 227.192V237.089C301.283 237.86 301.054 238.611 300.657 239.279C300.26 239.948 299.707 240.515 299.043 240.935L266.243 259.421C264.931 260.126 263.974 259.549 263.974 258.139V248.229C264.019 247.46 264.248 246.711 264.642 246.044C265.036 245.376 265.585 244.807 266.243 244.383Z" fill="black"/>
<path d="M343.914 202.616C343.914 202.616 327.802 180.899 326.858 178.258C326.11 176.309 326.858 173.412 327.094 172.066C327.33 170.72 327.54 167.72 327.776 166.938C328.17 165.476 326.241 165.771 325.152 167.104C324.063 168.438 323.696 171.104 323.132 171.54C322.567 171.976 318.277 165.861 316.034 163.04C313.79 160.22 312.386 158.502 311.009 159.553C310.025 160.31 310.759 161.951 312.386 164.361C313.336 165.659 314.212 167.007 315.01 168.399C315.26 168.925 313.921 168.963 313.2 170.053C312.636 170.899 313.2 172.271 312.413 172.925C311.928 173.285 311.596 173.807 311.48 174.391C311.364 174.975 311.472 175.58 311.783 176.091C313.243 178.332 315.127 180.281 317.333 181.834C319.747 183.463 320.717 184.04 322.148 186.257C323.578 188.475 336.409 211.128 337.275 212.487C338.141 213.846 339.807 216.615 342.339 216.692C344.871 216.769 365.601 199.334 366.664 198.462C370.075 195.68 371.164 195.283 371.741 197.783C371.941 198.671 372.089 199.57 372.187 200.475C372.594 203.654 374.811 215.013 374.811 215.013C374.811 215.013 385.307 219.974 393.927 217.577C402.547 215.179 405.46 211.603 405.46 211.603L401.143 204.731C402.311 201.898 407.703 190.411 409.448 182.373L382.421 178.104C381.87 177.988 380.978 177.771 379.797 177.476C378.314 177.091 374.549 175.822 371.702 178.258C362.413 186.168 343.94 202.616 343.94 202.616" fill="#FFA8A7"/>
<path d="M397.496 335.867L392.654 342.443C394.854 343.447 397.259 343.951 399.687 343.918C404.029 344.072 405.223 342.636 405.381 342.354C406.115 340.815 404.974 338.046 404.659 335.662L397.496 335.867Z" fill="#37474F"/>
<path d="M392.93 339.29C392.93 339.29 387.052 338.918 382.998 338.431C378.944 337.944 375.729 339.867 376.674 341.495C377.619 343.123 379.862 344.482 383.352 345.623C386.33 346.61 389.912 347.315 393.008 348.187C396.105 349.059 398.256 350.2 400.054 349.584C402.061 348.905 402.927 348.123 402.757 346.687C402.318 344.644 401.775 342.625 401.13 340.636L392.93 339.29Z" fill="#37474F"/>
<path d="M405.38 329.264C405.38 329.264 404.646 335.239 404.593 336.521C404.541 337.803 398.624 338.213 397.495 335.867L397.312 328.559L405.38 329.264Z" fill="#F28F8F"/>
<path d="M399.424 332.931L401.536 342.008C401.536 342.008 401.733 343.11 396.905 343.815C392.077 344.52 384.493 341.341 383.195 340.7C381.896 340.059 381.751 338.764 386.501 339.02C391.25 339.277 392.93 339.29 392.93 339.29L391.381 335.277L399.424 332.931Z" fill="#FFA8A7"/>
<path d="M409.369 182.296L412.715 181.386C412.715 181.386 419.708 203.013 420.482 205.103C421.256 207.192 422.135 209.397 420.626 211.974C418.829 215.038 409.369 227.358 409.369 227.358L403.36 221.615L410.183 209.41L404.148 197.488L409.369 182.296Z" fill="#F28F8F"/>
<path d="M375.007 154.207C374.223 152.769 373.825 151.159 373.85 149.529C373.875 147.899 374.323 146.302 375.151 144.887C378.484 138.849 385.91 135.913 394.753 137.029C398.846 137.554 403.674 140.875 406.311 145.836C409.224 151.336 409.499 162.412 410.247 166.604L375.007 154.207Z" fill="#37474F"/>
<path d="M374.771 156.579C374.771 156.579 372.672 160.489 373.039 160.848C373.583 161.159 374.178 161.376 374.797 161.489L374.771 156.579Z" fill="#FFA8A7"/>
<path d="M381.148 144.221C378.865 145.669 374.929 148.336 374.758 157.118C374.575 166.092 375.887 169.053 377.251 170.091C378.17 170.796 383.562 170.438 385.871 169.912C388.18 169.386 394.832 166.168 397.233 161.284C400.054 155.541 399.477 147.182 395.291 144.618C393.161 143.387 390.746 142.705 388.272 142.636C385.798 142.566 383.347 143.111 381.148 144.221Z" fill="#FFA8A7"/>
<path d="M405.38 211.551C409.421 217.705 413.252 223.089 414.091 230.038C415.823 244.64 410.155 261.331 408.935 272.139C411.23 275.213 412.553 278.876 412.74 282.677C412.74 287.151 405.38 329.265 405.38 329.265C405.38 329.265 400.027 330.854 397.311 328.559L392.26 251.088L394.884 241.653L405.38 211.551Z" fill="#407BFF"/>
<path opacity="0.2" d="M405.38 211.551C409.421 217.705 413.252 223.089 414.091 230.038C415.823 244.64 410.155 261.331 408.935 272.139C411.23 275.213 412.553 278.876 412.74 282.677C412.74 287.151 405.38 329.265 405.38 329.265C405.38 329.265 400.027 330.854 397.311 328.559L392.26 251.088L394.884 241.653L405.38 211.551Z" fill="black"/>
<path d="M392.26 251.088L394.884 241.653C399.908 240.36 404.754 238.479 409.316 236.05C409.316 236.05 406.587 240.909 398.741 243.576L394.687 255.691L394.346 283.446L392.26 251.088Z" fill="#407BFF"/>
<path opacity="0.3" d="M392.26 251.088L394.884 241.653C399.908 240.36 404.754 238.479 409.316 236.05C409.316 236.05 406.587 240.909 398.741 243.576L394.687 255.691L394.346 283.446L392.26 251.088Z" fill="black"/>
<path d="M405.38 211.551C407.545 215.013 412.715 220.91 411.612 226.589C410.3 233.461 406.496 238.294 394.924 241.653L384.06 280.113C384.06 280.113 389.715 285.241 391.447 290.202C393.179 295.163 399.424 332.957 399.424 332.957C399.424 332.957 397.482 336.046 391.381 335.303C391.381 335.303 370.114 287.869 368.618 284.779C366.803 281.65 366.167 277.999 366.821 274.459C367.49 269.485 374.693 215.038 374.693 215.038L405.38 211.551Z" fill="#407BFF"/>
<path opacity="0.2" d="M405.38 211.551C407.545 215.013 412.715 220.91 411.612 226.589C410.3 233.461 406.496 238.294 394.924 241.653L384.06 280.113C384.06 280.113 389.715 285.241 391.447 290.202C393.179 295.163 399.424 332.957 399.424 332.957C399.424 332.957 397.482 336.046 391.381 335.303C391.381 335.303 370.114 287.869 368.618 284.779C366.803 281.65 366.167 277.999 366.821 274.459C367.49 269.485 374.693 215.038 374.693 215.038L405.38 211.551Z" fill="black"/>
<path d="M409.368 182.296L382.341 178.027C381.79 177.912 380.898 177.694 379.717 177.399C379.717 177.399 378.563 193.962 371.622 197.757C371.793 198.552 371.937 199.436 372.068 200.449C372.475 203.629 374.692 214.987 374.692 214.987C374.692 214.987 385.188 219.948 393.808 217.551C402.428 215.154 405.34 211.577 405.34 211.577L401.024 204.705C402.231 201.847 407.663 190.36 409.368 182.296Z" fill="#407BFF"/>
<path opacity="0.7" d="M409.368 182.296L382.341 178.027C381.79 177.912 380.898 177.694 379.717 177.399C379.717 177.399 378.563 193.962 371.622 197.757C371.793 198.552 371.937 199.436 372.068 200.449C372.475 203.629 374.692 214.987 374.692 214.987C374.692 214.987 385.188 219.948 393.808 217.551C402.428 215.154 405.34 211.577 405.34 211.577L401.024 204.705C402.231 201.847 407.663 190.36 409.368 182.296Z" fill="white"/>
<path d="M402.245 201.975C398.656 204.081 394.895 205.894 391.001 207.398C394.535 207.329 397.995 206.394 401.064 204.68L402.245 201.975Z" fill="#407BFF"/>
<path d="M380.478 144.656C380.478 144.656 379.166 152.99 382.263 157.887C382.263 157.887 383.417 154.566 386.29 155.195C389.164 155.823 389.321 159.528 387.301 161.605C386.787 162.187 386.116 162.616 385.364 162.843C384.612 163.07 383.81 163.085 383.05 162.887C383.05 162.887 382.591 168.912 382.341 173.963C382.092 179.014 380.728 190.026 386.54 194.475C392.352 198.924 406.941 200.488 413.777 191.155C417.582 185.963 412.53 176.783 410.182 166.489C408.017 157.028 406.797 143.003 396.524 140.746C386.251 138.49 380.478 144.656 380.478 144.656Z" fill="#37474F"/>
</svg>
