<svg width="208" height="118" viewBox="0 0 208 118" fill="none" xmlns="http://www.w3.org/2000/svg">
<g filter="url(#filter0_d_356_441)">
<path d="M71.6891 98.4C69.8224 99.8667 67.0891 101.067 63.4891 102C59.8891 102.933 55.8224 103.4 51.2891 103.4C46.0891 103.4 41.5557 102.733 37.6891 101.4C33.9557 100.067 31.3557 97.9333 29.8891 95C28.6891 92.7333 27.2224 89.6 25.4891 85.6C23.8891 81.4667 22.1557 76.9333 20.2891 72C18.4224 66.9333 16.4891 61.5333 14.4891 55.8C12.4891 50.0667 10.5557 44.4 8.68906 38.8C6.95573 33.2 5.35573 27.8 3.88906 22.6C2.4224 17.4 1.2224 12.8 0.289063 8.79999C2.15573 6.93333 4.6224 5.33333 7.68906 4C10.8891 2.53333 14.3557 1.8 18.0891 1.8C22.7557 1.8 26.5557 2.79999 29.4891 4.79999C32.5557 6.66666 34.8224 10.2667 36.2891 15.6L44.0891 46.2C45.5557 52.2 46.9557 57.6667 48.2891 62.6C49.6224 67.4 50.6224 71.1333 51.2891 73.8H52.2891C54.8224 63.9333 57.4891 53 60.2891 41C63.0891 29 65.6224 17.2 67.8891 5.59999C70.1557 4.39999 72.6891 3.46666 75.4891 2.79999C78.4224 2.13333 81.2224 1.8 83.8891 1.8C88.5557 1.8 92.4891 2.79999 95.6891 4.79999C98.8891 6.79999 100.489 10.2667 100.489 15.2C100.489 17.3333 99.9557 20.4667 98.8891 24.6C97.9557 28.6 96.6891 33.2 95.0891 38.4C93.6224 43.4667 91.8224 48.8667 89.6891 54.6C87.6891 60.3333 85.6224 65.9333 83.4891 71.4C81.3557 76.8667 79.2224 82 77.0891 86.8C75.0891 91.4667 73.2891 95.3333 71.6891 98.4ZM197.673 72C197.673 82.1333 193.873 90.0667 186.273 95.8C178.673 101.533 167.473 104.4 152.673 104.4C147.073 104.4 141.873 104 137.073 103.2C132.273 102.4 128.14 101.2 124.673 99.6C121.34 97.8667 118.673 95.7333 116.673 93.2C114.807 90.6667 113.873 87.6667 113.873 84.2C113.873 81 114.54 78.3333 115.873 76.2C117.207 73.9333 118.807 72.0667 120.673 70.6C124.54 72.7333 128.94 74.6667 133.873 76.4C138.94 78 144.74 78.8 151.273 78.8C155.407 78.8 158.54 78.2 160.673 77C162.94 75.8 164.073 74.2 164.073 72.2C164.073 70.3333 163.273 68.8667 161.673 67.8C160.073 66.7333 157.407 65.8667 153.673 65.2L147.673 64C136.073 61.7333 127.407 58.2 121.673 53.4C116.073 48.4667 113.273 41.4667 113.273 32.4C113.273 27.4667 114.34 23 116.473 19C118.607 15 121.607 11.6667 125.473 9C129.34 6.33333 133.94 4.26666 139.273 2.79999C144.74 1.33333 150.74 0.599993 157.273 0.599993C162.207 0.599993 166.807 0.999994 171.073 1.8C175.473 2.46666 179.273 3.53333 182.473 5C185.673 6.46666 188.207 8.4 190.073 10.8C191.94 13.0667 192.873 15.8 192.873 19C192.873 22.0667 192.273 24.7333 191.073 27C190.007 29.1333 188.607 30.9333 186.873 32.4C185.807 31.7333 184.207 31.0667 182.073 30.4C179.94 29.6 177.607 28.9333 175.073 28.4C172.54 27.7333 169.94 27.2 167.273 26.8C164.74 26.4 162.407 26.2 160.273 26.2C155.873 26.2 152.473 26.7333 150.073 27.8C147.673 28.7333 146.473 30.2667 146.473 32.4C146.473 33.8667 147.14 35.0667 148.473 36C149.807 36.9333 152.34 37.8 156.073 38.6L162.273 40C175.073 42.9333 184.14 47 189.473 52.2C194.94 57.2667 197.673 63.8667 197.673 72Z" fill="#FFC224"/>
</g>
<defs>
<filter id="filter0_d_356_441" x="0.289062" y="0.599991" width="207.385" height="116.8" filterUnits="userSpaceOnUse" color-interpolation-filters="sRGB">
<feFlood flood-opacity="0" result="BackgroundImageFix"/>
<feColorMatrix in="SourceAlpha" type="matrix" values="0 0 0 0 0 0 0 0 0 0 0 0 0 0 0 0 0 0 127 0" result="hardAlpha"/>
<feOffset dx="6" dy="9"/>
<feGaussianBlur stdDeviation="2"/>
<feComposite in2="hardAlpha" operator="out"/>
<feColorMatrix type="matrix" values="0 0 0 0 0 0 0 0 0 0 0 0 0 0 0 0 0 0 1 0"/>
<feBlend mode="normal" in2="BackgroundImageFix" result="effect1_dropShadow_356_441"/>
<feBlend mode="normal" in="SourceGraphic" in2="effect1_dropShadow_356_441" result="shape"/>
</filter>
</defs>
</svg>
