<svg width="18" height="19" viewBox="0 0 18 19" fill="none" xmlns="http://www.w3.org/2000/svg">
<g clip-path="url(#clip0_131_131)">
<path d="M11.82 1.42C12.94 1.42 13.98 1.7 14.94 2.26C15.9 2.82 16.65 3.57 17.19 4.51C17.73 5.45 18 6.48 18 7.6C18 9 17.06 11.16 15.18 14.08C14.18 15.56 13.16 16.94 12.12 18.22C12.04 18.3 11.94 18.34 11.82 18.34C11.7 18.34 11.6 18.3 11.52 18.22C10.48 16.94 9.46 15.56 8.46 14.08C6.58 11.16 5.64 9 5.64 7.6C5.64 6.48 5.91 5.45 6.45 4.51C6.99 3.57 7.74 2.82 8.7 2.26C9.66 1.7 10.7 1.42 11.82 1.42ZM11.82 17.38C13.02 15.86 14.08 14.4 15 13C16.52 10.56 17.28 8.76 17.28 7.6C17.28 6.64 17.04 5.74 16.56 4.9C16.08 4.06 15.42 3.39 14.58 2.89C13.74 2.39 12.82 2.14001 11.82 2.14001C10.82 2.14001 9.9 2.39 9.06 2.89C8.22 3.39 7.56 4.06 7.08 4.9C6.6 5.74 6.36 6.64 6.36 7.6C6.36 8.76 7.12 10.56 8.64 13C9.56 14.4 10.62 15.86 11.82 17.38ZM11.82 4.9C12.5 4.9 13.09 5.15 13.59 5.65C14.09 6.15 14.34 6.75 14.34 7.45C14.34 8.15 14.09 8.74 13.59 9.22C13.09 9.7 12.5 9.94 11.82 9.94C11.14 9.94 10.55 9.7 10.05 9.22C9.55 8.74 9.3 8.15 9.3 7.45C9.3 6.75 9.55 6.15 10.05 5.65C10.55 5.15 11.14 4.9 11.82 4.9ZM11.82 9.22C12.34 9.22 12.77 9.05 13.11 8.71C13.45 8.37 13.62 7.95 13.62 7.45C13.62 6.95 13.45 6.52 13.11 6.16C12.77 5.8 12.34 5.62 11.82 5.62C11.3 5.62 10.87 5.8 10.53 6.16C10.19 6.52 10.02 6.95 10.02 7.45C10.02 7.95 10.19 8.37 10.53 8.71C10.87 9.05 11.3 9.22 11.82 9.22Z" fill="#5751E1"/>
</g>
<defs>
<clipPath id="clip0_131_131">
<rect width="18" height="18" fill="white" transform="matrix(-1 0 0 -1 18 18.88)"/>
</clipPath>
</defs>
</svg>
