<svg width="20" height="21" viewBox="0 0 20 21" fill="none" xmlns="http://www.w3.org/2000/svg">
<path d="M0.833391 9.67478C0.832691 8.95705 1.01699 8.25018 1.37009 7.61649C1.72319 6.9828 2.23419 6.44176 2.85799 6.04107C3.48189 5.64039 4.19939 5.39236 4.94739 5.31886C5.69539 5.24537 6.45079 5.34866 7.14709 5.61963C7.84339 5.8906 8.45919 6.32093 8.94009 6.87267C9.42099 7.42441 9.75229 8.08062 9.90479 8.78343C10.0573 9.48625 10.0263 10.2141 9.81459 10.9028C9.60279 11.5915 9.21679 12.2198 8.69059 12.7325V17.1746C8.69059 17.2812 8.66219 17.386 8.60779 17.4791C8.55349 17.5722 8.47509 17.6505 8.38009 17.7066C8.28519 17.7626 8.17669 17.7946 8.06519 17.7994C7.95359 17.8042 7.84269 17.7816 7.74279 17.7339L5.41679 16.623L3.09069 17.7339C2.99089 17.7816 2.87989 17.8042 2.76829 17.7994C2.65679 17.7946 2.54829 17.7626 2.45339 17.7066C2.35839 17.6505 2.27999 17.5722 2.22569 17.4791C2.17129 17.386 2.14289 17.2812 2.14289 17.1746V12.7325C1.30319 11.9167 0.832891 10.8185 0.833391 9.67478ZM5.41679 6.54988C4.76929 6.54988 4.13629 6.73315 3.59789 7.07652C3.05959 7.41989 2.63989 7.90793 2.39219 8.47893C2.14439 9.04994 2.07949 9.67825 2.20589 10.2844C2.33219 10.8906 2.64399 11.4474 3.10179 11.8844C3.55969 12.3215 4.14299 12.6191 4.77809 12.7397C5.41309 12.8602 6.07139 12.7983 6.66959 12.5618C7.26779 12.3253 7.77909 11.9248 8.13879 11.4109C8.49859 10.897 8.69059 10.2928 8.69059 9.67478C8.69059 8.84601 8.34559 8.05118 7.73169 7.46514C7.11769 6.87911 6.28499 6.54988 5.41679 6.54988ZM5.12379 15.3652C5.21469 15.3218 5.31499 15.2992 5.41679 15.2992C5.51849 15.2992 5.61879 15.3218 5.70979 15.3652L7.38099 16.1637V13.627C6.76729 13.9053 6.09629 14.0497 5.41679 14.0497C4.73729 14.0497 4.06629 13.9053 3.45249 13.627V16.1637L5.12379 15.3652ZM10.0001 14.6746C10.0001 14.8404 10.0691 14.9994 10.1919 15.1166C10.3147 15.2338 10.4812 15.2996 10.6548 15.2996H17.8572C18.2045 15.2996 18.5376 15.1679 18.7832 14.9335C19.0288 14.6991 19.1667 14.3812 19.1667 14.0497V4.04995C19.1667 3.71844 19.0288 3.40051 18.7832 3.1661C18.5376 2.93168 18.2045 2.79999 17.8572 2.79999H3.45249C3.10519 2.79999 2.77209 2.93168 2.52649 3.1661C2.28089 3.40051 2.14289 3.71844 2.14289 4.04995C2.14289 4.21571 2.21189 4.37467 2.33469 4.49188C2.45749 4.60909 2.62409 4.67493 2.79769 4.67493C2.97139 4.67493 3.13789 4.60909 3.26069 4.49188C3.38349 4.37467 3.45249 4.21571 3.45249 4.04995H17.8572V14.0497H10.6548C10.4812 14.0497 10.3147 14.1155 10.1919 14.2327C10.0691 14.3499 10.0001 14.5089 10.0001 14.6746ZM11.3096 10.2998C11.3096 10.4655 11.3786 10.6245 11.5014 10.7417C11.6242 10.8589 11.7907 10.9248 11.9644 10.9248H15.2382C15.4118 10.9248 15.5784 10.8589 15.7012 10.7417C15.824 10.6245 15.8929 10.4655 15.8929 10.2998C15.8929 10.134 15.824 9.97504 15.7012 9.85784C15.5784 9.74063 15.4118 9.67478 15.2382 9.67478H11.9644C11.7907 9.67478 11.6242 9.74063 11.5014 9.85784C11.3786 9.97504 11.3096 10.134 11.3096 10.2998ZM11.3096 7.79984C11.3096 7.9656 11.3786 8.12456 11.5014 8.24177C11.6242 8.35898 11.7907 8.42482 11.9644 8.42482H15.2382C15.4118 8.42482 15.5784 8.35898 15.7012 8.24177C15.824 8.12456 15.8929 7.9656 15.8929 7.79984C15.8929 7.63409 15.824 7.47512 15.7012 7.35791C15.5784 7.24071 15.4118 7.17486 15.2382 7.17486H11.9644C11.7907 7.17486 11.6242 7.24071 11.5014 7.35791C11.3786 7.47512 11.3096 7.63409 11.3096 7.79984Z" fill="#7F7E97"/>
</svg>
