<svg width="20" height="21" viewBox="0 0 20 21" fill="none" xmlns="http://www.w3.org/2000/svg">
<g clip-path="url(#clip0_87_716)">
<mask id="mask0_87_716" style="mask-type:luminance" maskUnits="userSpaceOnUse" x="0" y="0" width="20" height="21">
<path d="M0 0.300003H20V20.3H0V0.300003Z" fill="white"/>
</mask>
<g mask="url(#mask0_87_716)">
<path d="M2.5781 1.8625H4.375V0.925003C4.375 0.579847 4.6548 0.300003 5 0.300003C5.3452 0.300003 5.625 0.579847 5.625 0.925003V1.8625H14.375V0.925003C14.375 0.579847 14.6548 0.300003 15 0.300003C15.3452 0.300003 15.625 0.579847 15.625 0.925003V1.8625H17.4219C18.8435 1.8625 20 3.01902 20 4.44062V17.7219C20 19.1435 18.8435 20.3 17.4219 20.3H2.5781C1.1565 20.3 0 19.1435 0 17.7219V4.44062C0 3.01902 1.1565 1.8625 2.5781 1.8625ZM17.4219 3.1125H15.625V3.7375C15.625 4.08266 15.3452 4.3625 15 4.3625C14.6548 4.3625 14.375 4.08266 14.375 3.7375V3.1125H5.625V3.7375C5.625 4.08266 5.3452 4.3625 5 4.3625C4.6548 4.3625 4.375 4.08266 4.375 3.7375V3.1125H2.5781C1.8458 3.1125 1.25 3.70828 1.25 4.44062V5.925H18.75V4.44062C18.75 3.70828 18.1542 3.1125 17.4219 3.1125ZM2.5781 19.05H17.4219C18.1542 19.05 18.75 18.4542 18.75 17.7219V7.175H1.25V17.7219C1.25 18.4542 1.8458 19.05 2.5781 19.05Z" fill="#7F7E97"/>
</g>
</g>
<defs>
<clipPath id="clip0_87_716">
<rect width="20" height="20" fill="white" transform="matrix(-1 0 0 1 20 0.300003)"/>
</clipPath>
</defs>
</svg>
