<svg width="18" height="18" viewBox="0 0 18 18" fill="none" xmlns="http://www.w3.org/2000/svg">
<path d="M3.29891 8.30505H3.70761V4.55383C3.70761 4.27632 3.81401 4.01017 4.00331 3.81394C4.19251 3.61771 4.44931 3.50747 4.71701 3.50747H7.74491C7.77681 2.87766 8.02121 2.27951 8.43541 1.8176C8.84961 1.35568 9.4072 1.05938 10.0108 0.980488C10.356 0.943648 10.7048 0.981018 11.0355 1.09029C11.3661 1.19956 11.6715 1.37836 11.9325 1.61553C12.1934 1.85269 12.4044 2.14312 12.5522 2.46865C12.7 2.79419 12.7814 3.14783 12.7914 3.50747H16.324C16.5916 3.50747 16.8484 3.61771 17.0376 3.81394C17.2269 4.01017 17.3333 4.27632 17.3333 4.55383V8.82824H15.9152C15.5269 8.81654 15.148 8.95361 14.8511 9.21323C14.5541 9.47289 14.3598 9.83679 14.3053 10.2356C14.2857 10.4544 14.3106 10.675 14.3784 10.8832C14.4462 11.0914 14.5554 11.2825 14.699 11.4442C14.8401 11.6077 15.0127 11.7388 15.2056 11.8289C15.3986 11.919 15.6077 11.9662 15.8193 11.9673H17.3333V16.587C17.3333 16.8646 17.2269 17.1307 17.0376 17.3269C16.8484 17.5232 16.5916 17.6334 16.324 17.6334H4.71701C4.44931 17.6334 4.19251 17.5232 4.00331 17.3269C3.81401 17.1307 3.70761 16.8646 3.70761 16.587V13.5369H3.20301C2.84881 13.5388 2.49821 13.4634 2.17401 13.3156C1.84981 13.1678 1.55921 12.9508 1.32121 12.6789C1.08321 12.407 0.903112 12.0862 0.792612 11.7373C0.682112 11.3885 0.643612 11.0194 0.679712 10.6542C0.761513 9.99729 1.07381 9.39469 1.55691 8.96142C2.04001 8.52812 2.66011 8.29446 3.29891 8.30505ZM2.08271 11.9673C2.22381 12.1309 2.39641 12.2619 2.58931 12.3521C2.78231 12.4422 2.99141 12.4893 3.20301 12.4905H4.71701V16.587H16.324V13.0137H15.8193C15.4651 13.0156 15.1145 12.9402 14.7903 12.7924C14.4661 12.6446 14.1756 12.4277 13.9375 12.1557C13.6995 11.8838 13.5194 11.563 13.4089 11.2142C13.2984 10.8653 13.2599 10.4962 13.296 10.131C13.3778 9.47409 13.6901 8.87155 14.1732 8.43824C14.6563 8.00494 15.2765 7.77128 15.9152 7.78187H16.324V4.55383H11.7821V3.59641C11.781 3.377 11.7355 3.16027 11.6485 2.96021C11.5616 2.76015 11.4352 2.58122 11.2774 2.43494C11.1215 2.28611 10.9372 2.17289 10.7364 2.10259C10.5355 2.03229 10.3227 2.00649 10.1117 2.02686C9.72705 2.0833 9.37596 2.28472 9.12553 2.5926C8.87511 2.90048 8.74291 3.29324 8.75421 3.69581V4.55383H4.71701V9.35139H3.29891C2.91061 9.33969 2.53171 9.47679 2.23471 9.73639C1.93781 9.99609 1.74351 10.36 1.68901 10.7588C1.66941 10.9776 1.69431 11.1982 1.76211 11.4064C1.82991 11.6146 1.93911 11.8057 2.08271 11.9673Z" fill="#7F7E97"/>
</svg>
