<svg width="20" height="21" viewBox="0 0 20 21" fill="none" xmlns="http://www.w3.org/2000/svg">
<mask id="mask0_87_726" style="mask-type:luminance" maskUnits="userSpaceOnUse" x="0" y="0" width="20" height="21">
<path d="M0 0.299988H20V20.3H0V0.299988Z" fill="white"/>
</mask>
<g mask="url(#mask0_87_726)">
<path d="M0.00160217 10.2683C0.00160217 10.7059 0.00160313 11.1434 0.064003 11.5809C0.126403 11.8934 0.438402 12.1434 0.750402 12.1434C1.0624 12.1434 1.3119 11.7684 1.3119 11.4559C1.2496 11.0184 1.2496 10.6433 1.2496 10.2683C1.2496 5.45562 5.1806 1.51796 9.9852 1.51796C10.3595 1.51796 10.7339 1.51796 11.1707 1.58046C11.4827 1.64296 11.8571 1.39295 11.8571 1.08044C11.9195 0.767926 11.6699 0.39291 11.3579 0.39291C5.8669 -0.357121 0.875202 3.51804 0.126402 8.95577C0.00160217 9.39329 0.00160217 9.8308 0.00160217 10.2683Z" fill="#7F7E97"/>
<path d="M13.3548 18.3312C14.0411 18.0187 14.7275 17.6436 15.3515 17.2061C15.6011 17.0186 16.0378 17.0186 16.225 17.3311C16.4122 17.5811 16.4122 18.0187 16.1002 18.2062C15.4139 18.7062 14.6651 19.2062 13.8539 19.5187C13.542 19.6437 13.1676 19.5187 13.0428 19.2062C12.8556 18.8312 12.9804 18.4562 13.3548 18.3312Z" fill="#7F7E97"/>
<path d="M15.7257 3.45555C15.6009 3.45555 15.4761 3.39305 15.3513 3.33054C14.7274 2.89303 14.1034 2.45551 13.417 2.2055C13.105 2.08049 12.9178 1.70548 13.0426 1.39296C13.1674 1.08045 13.5418 0.892941 13.8538 1.01795C14.665 1.33046 15.4137 1.76798 16.1001 2.3305C16.3497 2.58051 16.4121 2.95553 16.2249 3.20554C16.1001 3.39305 15.9129 3.45555 15.7257 3.45555Z" fill="#7F7E97"/>
<path d="M18.0344 13.6435C18.1592 13.331 18.5336 13.1435 18.8456 13.2685C19.1575 13.3935 19.3447 13.7685 19.2199 14.081C18.908 14.8935 18.4712 15.6436 17.9096 16.3311C17.7224 16.5811 17.2856 16.6436 17.036 16.4561C16.7865 16.2686 16.7241 15.8311 16.9112 15.5811C17.348 15.0185 17.7848 14.331 18.0344 13.6435Z" fill="#7F7E97"/>
<path d="M18.6585 11.4559C18.7833 10.7059 18.7833 9.9558 18.6585 9.14327C18.5961 8.83075 18.8456 8.51824 19.22 8.45574C19.5944 8.39323 19.844 8.64325 19.9064 9.01826C20.0312 9.8933 20.0312 10.7684 19.9064 11.6434C19.844 11.9559 19.5944 12.2059 19.2824 12.2059H19.22C18.8456 12.0809 18.5961 11.7684 18.6585 11.4559Z" fill="#7F7E97"/>
<path d="M18.908 7.26819C18.596 7.39319 18.2216 7.26819 18.0969 6.95567C17.7849 6.26815 17.4105 5.58062 16.9737 4.95559C16.7865 4.70558 16.7865 4.26806 17.0985 4.08056C17.3481 3.89305 17.7225 3.95555 17.9097 4.20556C18.4088 4.89309 18.8456 5.64312 19.22 6.45565C19.3448 6.76817 19.22 7.14318 18.908 7.26819Z" fill="#7F7E97"/>
<path d="M4.68161 17.2061C5.30561 17.6436 5.92951 18.0812 6.67831 18.3312C6.99031 18.4562 7.17751 18.8312 7.05271 19.1437C6.92791 19.4562 6.55351 19.6437 6.24151 19.5187C5.43041 19.2062 4.68161 18.7687 3.99521 18.2062C3.74561 18.0187 3.68321 17.6436 3.87041 17.3311C3.99521 17.0811 4.36961 17.0186 4.68161 17.2061Z" fill="#7F7E97"/>
<path d="M8.86207 18.9562C9.61087 19.0812 10.3596 19.0812 11.1708 18.9562C11.4828 18.8937 11.7947 19.1437 11.8571 19.5187C11.9195 19.8312 11.67 20.1437 11.2956 20.2062C10.422 20.3313 9.54847 20.3313 8.67487 20.2062C8.36287 20.1437 8.11327 19.8312 8.11327 19.5187C8.17567 19.1437 8.48767 18.8937 8.86207 18.9562Z" fill="#7F7E97"/>
<path d="M1.12496 13.331C1.43686 13.206 1.81126 13.331 1.93606 13.6435C2.24806 14.331 2.62246 15.0185 3.05926 15.6436C3.24646 15.8936 3.24646 16.3311 2.93446 16.5186C2.62246 16.7061 2.24806 16.7061 2.06086 16.3936C1.49926 15.7061 1.06255 14.956 0.750555 14.1435C0.625755 13.831 0.812956 13.456 1.12496 13.331Z" fill="#7F7E97"/>
<path d="M9.9852 4.7056C10.3595 4.7056 10.6091 4.95561 10.6091 5.33063V10.3308C10.6091 10.7059 10.3595 10.9559 9.9852 10.9559H4.9934C4.619 10.9559 4.3694 10.7059 4.3694 10.3308C4.3694 9.95582 4.619 9.70581 4.9934 9.70581H9.3612V5.33063C9.3612 4.95561 9.6108 4.7056 9.9852 4.7056Z" fill="#7F7E97"/>
</g>
</svg>
