<svg width="18" height="21" viewBox="0 0 18 21" fill="none" xmlns="http://www.w3.org/2000/svg">
<path d="M14.2141 15.6125H3.64801C1.92811 15.6125 0.528912 14.2107 0.528912 12.4875V3.42499C0.528912 1.70181 1.92811 0.299988 3.64801 0.299988H14.2141C15.9341 0.299988 17.3333 1.70181 17.3333 3.42499V17.175C17.3333 18.8982 15.9341 20.3 14.2141 20.3H3.64801C1.92811 20.3 0.528912 18.8982 0.528912 17.175C0.528912 16.7435 0.878012 16.3937 1.30871 16.3937C1.73941 16.3937 2.08851 16.7435 2.08851 17.175C2.08851 18.0365 2.78811 18.7375 3.64801 18.7375H14.2141C15.074 18.7375 15.7737 18.0365 15.7737 17.175C15.7737 16.3135 15.074 15.6125 14.2141 15.6125ZM15.7737 3.42499C15.7737 2.56348 15.074 1.86249 14.2141 1.86249H3.64801C2.78811 1.86249 2.08851 2.56348 2.08851 3.42499V12.4875C2.08851 13.349 2.78811 14.05 3.64801 14.05H14.2141C14.7819 14.05 15.3147 14.2027 15.7737 14.4693V3.42499ZM12.6156 5.57343C12.6156 5.14191 12.2665 4.79218 11.8358 4.79218H5.98741C5.55671 4.79218 5.20761 5.14191 5.20761 5.57343C5.20761 6.00495 5.55671 6.35468 5.98741 6.35468H11.8358C12.2665 6.35468 12.6156 6.00495 12.6156 5.57343Z" fill="#7F7E97"/>
</svg>
