<svg width="20" height="17" viewBox="0 0 20 17" fill="none" xmlns="http://www.w3.org/2000/svg">
<path d="M1.4396 4.27271L8.4982 1.26607C8.9748 1.06744 9.4801 0.966736 10 0.966736C10.5199 0.966736 11.0252 1.06744 11.5018 1.26607C11.5036 1.26686 18.5604 4.27271 18.5604 4.27271C19.435 4.63861 20 5.48721 20 6.43549C20 7.38377 19.435 8.23236 18.5604 8.59826L16.875 9.31619V14.248C16.875 15.5403 15.8236 16.5917 14.5312 16.5917H5.4688C4.1764 16.5917 3.125 15.5403 3.125 14.248V12.1648C3.125 11.7333 3.4748 11.3835 3.9063 11.3835C4.3377 11.3835 4.6875 11.7333 4.6875 12.1648V14.248C4.6875 14.6788 5.038 15.0292 5.4688 15.0292H14.5312C14.962 15.0292 15.3125 14.6788 15.3125 14.248V9.98169C15.3125 9.98169 11.5036 11.6042 11.5018 11.605C11.0252 11.8035 10.5199 11.9042 10 11.9042C9.4802 11.9042 8.9749 11.8035 8.4983 11.605C8.4964 11.6042 1.4396 8.59826 1.4396 8.59826C0.565001 8.23236 0 7.38377 0 6.43549C0 5.48721 0.565001 4.63861 1.4396 4.27271ZM2.0437 7.15725L9.1017 10.1636C9.3862 10.2818 9.6884 10.3417 10 10.3417C10.3117 10.3417 10.6139 10.2818 10.8983 10.1637C11.5991 9.86509 17.9545 7.15803 17.9564 7.15725C18.2486 7.03541 18.4375 6.75213 18.4375 6.43549C18.4375 6.11885 18.2486 5.83557 17.9563 5.71373C17.9545 5.71295 10.8983 2.70732 10.8983 2.70732C10.6139 2.58916 10.3116 2.52924 10 2.52924C9.6884 2.52924 9.3861 2.58916 9.1017 2.70732L2.0437 5.71373C1.7514 5.83557 1.5625 6.11885 1.5625 6.43549C1.5625 6.75213 1.7514 7.03541 2.0437 7.15725Z" fill="#7F7E97"/>
</svg>
